<?xml version="1.0" encoding="UTF-8"?>
<svg id="Layer_2" data-name="Layer 2" xmlns="http://www.w3.org/2000/svg" viewBox="0 0 685.08 194.96">
  <defs>
    <style>
      .cls-1 {
        fill: #e07a5f;
      }
    </style>
  </defs>
  <g id="Layer_3" data-name="Layer 3">
    <g>
      <g>
        <g>
          <path class="cls-1" d="M40.79,104.37c-.01.06.07.01,0,0h0Z"/>
          <path class="cls-1" d="M19.15,86.25s-.02,0-.02-.01c-.19.2-.35.37-.48.51l.5-.49Z"/>
          <path class="cls-1" d="M16.64,82.1s.01-.05.02-.08c-.1.13-.2.26-.02.08Z"/>
          <path class="cls-1" d="M28.75,91.14s.08,0,.15-.05c-.06.03-.11.05-.15.05Z"/>
          <path class="cls-1" d="M47.24,109.95s-.02,0-.03,0c-.03.05-.06.08-.1.14l.13-.14Z"/>
          <path class="cls-1" d="M46.81,110.16c.1-.2.33-.22.4-.22.23-.32.18-.42-.03-.41-.34.26-.15.39-.37.63Z"/>
          <path class="cls-1" d="M57.02,121.86l-.17.05s.11-.03.17-.05Z"/>
          <path class="cls-1" d="M42.56,75.42s.08,0,.13-.02c-.02-.04-.07-.02-.13.02Z"/>
          <path class="cls-1" d="M56.06,119.58l-.58.35c.25-.13.43-.24.58-.35Z"/>
          <path class="cls-1" d="M18.64,86.74l-.19.18s.11-.11.19-.18Z"/>
          <path class="cls-1" d="M13.51,79.25c.12-.17.21-.31.28-.43h0s-.27.43-.27.43Z"/>
          <path class="cls-1" d="M.48,58.53c-.04.08-.07.16-.11.24l.31-.38c-.06.02-.13.06-.19.14Z"/>
          <path class="cls-1" d="M10.36,73.51c-.05.06-.09.12-.15.18-.04.24.15.43.45.6l.48-.68-.78-.1Z"/>
          <path class="cls-1" d="M14.97,53.53l-.27,1.79c-2.3-.51-2.35-2.48-4.69-2.27l.27-.26c-.06-.49-2.01,2.71-2.48-2.79l.08-.15c-.11-.03-.27.27-.24-.23l-.02,1.15c-.48.21-1.11.78-1.54.68,0-.21.15-.52.27-.76l-1.05-.25.23-1.1c-.56.37-1.49,2.44-1.65.93-.45,1.54-.81.64-1.09,1.4.05-.19.1-.5.16-.77-.53-.07-1.57-.11-2.14.5,0,0,.2,3.85-.15,5.57-.4-.69-.25.09-.38.62l.22-.33c.18.53-.29,1.41-.24,1.75.03-.07.08-.16.12-.25l-.09.11c.07-.16.13-.27.2-.34.1-.19.19-.33.26-.22l-.07.08c.22-.05.4.23.48.35l-.39.73c1.02-1.25.61,3.07.91,3.31-.17,1.11.9.21,1.08.91.55.62-.26,1.25-.27,2.07.16.7.4-.89.59-.84l-.07,1.3c-.34-.08-.43.44-.54.75.37.38.27,2.09,1.25.74.18,1.02-.16,1.6.04,1.82.07-.31.05-.65.22-.94-.14.77.2-.09.19-.29.73-.4.26,3.7,1.28,2.18l-.17.28c.79-1.11,1.35-2.31,1.99-2.8l-.15.62.56-.34c-.07.48-.34.74-.43.88.73-.28.9.71,1.29,1.17l1.46-3.46c-.03.99-.22,2.92.5,1.97l-.43,1.21c-.48,2.53,1.13-.49,1.07.33l-.33,1.4-.39-.29c.03.84-.05,1.32-.22,2.26l.02-.03c0-.06.03-.12.07-.19h.07c.42-.52.89-.77,1.15-.54.3.42,1.17-.18,1,1.44l.94-1.03v1.01s-.62.91-.62.91c-.43-.37-1.54-.63-2.17-.99l-.29.41c.36.23,1.03.11,1.2.36,0,.26-.37,1.41-1,1.88l.83-.74c1.24.7,1.29.66,1.77,2.55l.22-.53c.43-.09.85-.18.39.6.62.66.95,1.76.57,3.23l.87-.97c.11.17-.85,1.91.32.51l.66-.22c.14.23.72-.27.5.5h0s0,0,0,0c-.01.05-.03.1-.05.15.02-.03.04-.06.06-.09.11.8.7-.93.78.06-.4.86,1.19-1.16,1.27-.73l-.88,1.68c-.2,1.2,1.03-.21,1.7.31-.09.77-.93,2.14-2.02,3.08,1.35-1.11.82-.77,1.72-1.11-.38.6-.51.68-.99,1.11-.18.91.6-.33.83-.09.9-.97,2.31-2.54,2.45-2.54l.16-.4c.72-.33,1.23-.34,1.12.44l-.43.51h.55s-.52.69-.52.69l.65.19.08-.23c.18,0,.75.08.67.6l-.31.36c-.37,1.63,1.36.56,2.15,1.03l-.72.65c-.4.92,1.04-1.07,1-.47l-.76.91c1.27-.97.1.52-.12,1.11l.94-1.24.1.52c0,.69-1.09,1.66-1.68,2.23l1.04-.71-.86,1.07c1.23-1.04,0,.34.86-.03-.32.41-.59.56-.64.82l1.78-1.01-.87.37,1.37-1.46c1.33-.85.27.54.87.32l-.55.31c.69-.04.13.61.03,1.12.19-.33.47-.83.79-.89.18.01-.42.57-.47.83.93-.97,1.66-1.25,1.46-.57-.13.14-.26.27-.36.34.2-.1.47-.33.35,0l-1.07,1.03,1.16-.85c-.15.42.78-.19.08.53l-.28.15.74,1.19-.8.87c1.22-1.09.1.95,1.48-.55-.58.97,1.27.13-.44,1.68.5.74,2.39-.5,2.37,1.06-1.11,1.65.08,1.93.4,2.57,1.52.38,2.65.51,4.05,1.1-1.43,2.45,2.09.9,1.56,2.6l.97-.54c-.9,1.59,1.29.88.57,2.61.49-.15.67-.17.73-.16.01-.06.13-.24.64-.7-.21.5.56.47-.5,1.34l-.15.05c-1.07.87.96.13.22,1.1l1.03-1.06.1.5-.29.09c3.78-.57.73,3.07,4.21,2.65-1.41.81.89-.24-.47.87-1.45,1.73.9.38,1.61.33.07-.05.15-.11.27-.18l.25.66c-2,1.04,1.76-.74.03.12-.26,2.4,2.47,3.2,3.02,5.32l.41-.4c.21.48,1.15.61.62,1.45-.53.84,1.68-.12,1.84-.05,1.06-.2-.34,1.23-.36,1.02.48.22,2.4-.55,2.04.47-1.44,1.22,2.51.45.75,1.63l.15-.09c-.8,1.5,1.75.78,1.08,2.25,0,0-.14.06-.28.12,2.13-.63,4.27-1.25,6.43-1.84l5.73-4.18,3.96-4.5c-1.2-1.11-2.4-2.2-3.61-3.26-.07-1.45-.17-2.91-.28-4.38-1.97-2.37-4.01-4.69-6.09-6.95l-1.66.47c1.07-3.16-2.88-2.93-2.59-5.68l-1.08.85c-.42-.36.26-.88.35-1.14-3.55-3.71-8.4-6.25-10.41-10.67.33-.95-1.01-1.52-.58-2.45-2.23.15-3.37-.91-4.33-2.06l.14-.07-.69-.28c.05-.1.16-.23.25-.29-1.41.37-1.52-1.35-1.92-2.37l.14-.07c-4.11-3.98-9.76-5.24-13.1-10.08-.8-3.37-5.07-2.59-6.51-5.78.31-1.46-5.41-3.9-6.21-3.59Z"/>
          <path class="cls-1" d="M6.34,50.69h.02c.27-.5.14-.33-.02,0Z"/>
          <polygon class="cls-1" points="8.55 70.33 8.53 70.3 8.21 71.06 8.55 70.33"/>
          <path class="cls-1" d="M2.11,66.99c.19.32.27.21.35-.02-.08-.09-.2-.1-.35.02Z"/>
          <path class="cls-1" d="M3.26,50.3c-.14-.13-.24.21-.32.6.2.03.33.06.33.06-.03-.17.02-.49-.01-.66Z"/>
          <path class="cls-1" d="M.27,57.6l-.27.39c.15-.05.22-.21.27-.39Z"/>
        </g>
        <g>
          <path class="cls-1" d="M77.94,79.94c-.04.06.06.06,0,0h0Z"/>
          <path class="cls-1" d="M68.58,42.95s0-.02-.01-.04c-.28,0-.52,0-.7,0l.71.03Z"/>
          <path class="cls-1" d="M69.65,36.67s.04-.03.07-.04c-.16.02-.33.03-.07.04Z"/>
          <path class="cls-1" d="M73.16,56.55c0,.06.06.07.15.08-.06-.02-.12-.04-.15-.08Z"/>
          <path class="cls-1" d="M82.63,90.18s-.02,0-.03-.02c-.05.04-.08.07-.14.11l.17-.1Z"/>
          <path class="cls-1" d="M82.14,90.22c.15-.19.38-.09.45-.05.31-.26.29-.41.08-.5-.4.14-.25.38-.53.55Z"/>
          <path class="cls-1" d="M90.91,108.57h-.18c.05.02.12.01.18,0Z"/>
          <path class="cls-1" d="M93.66,52.38s.07.05.11.07c0-.04-.05-.06-.11-.07Z"/>
          <path class="cls-1" d="M90.07,105.49l-.64.23c.27-.08.47-.15.64-.23Z"/>
          <path class="cls-1" d="M67.87,42.92h-.27c.06-.01.16,0,.27,0Z"/>
          <path class="cls-1" d="M69.64,31.01c.21-.02.37-.04.51-.06v-.02s-.51.08-.51.08Z"/>
          <path class="cls-1" d="M80.1,3.14c-.08,0-.17,0-.26,0l.47.13c-.04-.06-.11-.1-.21-.13Z"/>
          <path class="cls-1" d="M72.18,23.18c-.08,0-.15-.02-.24-.02-.22.14-.26.49-.22.93h.83s-.38-.91-.38-.91Z"/>
          <path class="cls-1" d="M91.36,14.8l-1.67.76c-.76-2.43.9-3.54-.39-5.64l.36.12c.4-.28-3.38-.57,1.32-3.77h.17c-.02-.11-.36-.12.09-.34l-1.04.54c-.41-.36-1.19-.69-1.29-1.16.19-.09.53-.11.8-.11l-.24-1.14,1.09-.3c-.57-.37-2.85-.32-1.53-1.19-1.6.27-.92-.51-1.73-.44.2-.04.49-.13.77-.2-.15-.56-.54-1.63-1.33-1.94,0,0-3.43,1.99-5.15,2.52.47-.78-.18-.22-.72-.09l.39.07c-.41.46-1.41.41-1.7.64.08,0,.18,0,.28,0l-.13-.04c.18-.01.3,0,.4.04.21,0,.38.03.31.16l-.1-.03c.13.21-.04.55-.11.7l-.83-.03c1.57.42-2.51,2.32-2.58,2.82-1.07.46.22,1.1-.31,1.7-.29.97-1.22.46-1.95.94-.53.61.97-.11,1.02.14l-1.17.72c-.09-.43-.6-.21-.92-.13-.15.64-1.7,1.63-.04,1.85-.8.86-1.46.86-1.55,1.23.3-.12.58-.37.91-.37-.73.34.18.17.34.03.72.52-3.03,2.76-1.21,2.87h-.33c1.36.12,2.68-.09,3.43.28l-.61.25.59.36c-.44.25-.8.13-.97.13.64.6-.1,1.44-.27,2.18l3.69-.83c-.84.62-2.56,1.76-1.37,1.86l-1.24.4c-2.35,1.3,1.06.83.36,1.34l-1.33.66v-.62c-.66.64-1.1.9-1.96,1.43h.04c.05-.03.12-.06.2-.06l.04.09c.68.05,1.15.36,1.12.8-.16.63.84,1.07-.54,2.12l1.4.18-.78.78-1.1.06c.02-.73-.47-2.09-.55-3.03h-.5c.02.56.53,1.18.44,1.55-.21.19-1.33.71-2.09.41l1.1.3c.23,1.87.28,1.87-.86,3.91l.54-.21c.35.37.69.73-.2.9-.09,1.19-.69,2.45-2.02,3.34l1.31.06c-.05.25-1.98.79-.16.76l.61.48c-.08.35.69.49-.02.94h0s-.09.06-.15.09c.04,0,.07,0,.11-.01-.5.82,1.16-.11.5.83-.89.37,1.67.16,1.42.61l-1.81.61c-.99.89.89.83,1,1.95-.61.61-2.15,1.05-3.6.84,1.76.31,1.13.1,2.03.67-.69.18-.84.13-1.49.05-.75.68.67.29.69.73,1.33-.02,3.44-.12,3.54,0l.39-.22c.76.38,1.15.83.55,1.45l-.66.06.4.53-.84.14.36.78.21-.14c.13.18.5.76.11,1.18l-.47.05c-1.32,1.21.72,1.78,1.04,2.93h-.98c-.89.53,1.49-.12,1.08.43l-1.17.2c1.6.19-.25.59-.79.98l1.52-.37-.24.6c-.42.68-1.88.67-2.7.71l1.28.22-1.34.29c1.63.05-.2.34.73.74-.5.13-.82.04-1.01.26l2.06.56-.93-.39,1.99-.26c1.59.3-.09.77.52,1.07l-.63-.17c.59.55-.25.73-.63,1.16.35-.17.87-.44,1.17-.23.14.17-.68.22-.87.44,1.32-.18,2.1.15,1.54.67-.19.03-.37.05-.49.05.23.07.58.06.29.3l-1.48.15,1.45.1c-.36.31.77.46-.22.6l-.32-.08v1.84s-1.17.25-1.17.25c1.64-.13-.42,1.09,1.57.65-1.03.55,1.02,1.17-1.27,1.42.05,1.21,2.34,1.4,1.56,3.04-1.8.91-.88,2.17-.88,3.13,1.17,1.61,2.2,2.57,3.24,4.23-2.38,1.75,1.56,2.47.4,4.01l1.13.04c-1.46,1.22.9,1.84-.43,3.37.53.14.71.24.76.29.04-.06.21-.19.87-.4-.38.44.37.9-.96,1.23l-.16-.04c-1.33.33.89.76-.16,1.43l1.36-.6-.07.65-.32-.08c3.87,1.57-.25,4.07,3.35,5.52-1.63.18.95.2-.71.77-1.91,1.28.81.95,1.53,1.24.08-.03.18-.05.32-.07l.08.91c-2.27.2,1.95.02,0,.16-.83,2.73,1.77,5.02,1.99,7.79l.49-.31c.13.68,1.08,1.21.42,2.02-.66.81,1.76.53,1.91.68,1.12.16-.51,1.35-.51,1.09.48.46,2.57.23,2.07,1.33-1.63.98,2.56,1.4.62,2.22l.17-.06c-.96,1.56,1.76,1.5.97,3.08,0,0-.15.04-.3.06l6.81-.46,6.21-3.44,4.52-4.02c-1.05-1.38-2.08-2.78-3.09-4.19l.62-4.57c-1.4-2.95-2.72-5.93-3.99-8.95l-1.74-.17c2.06-2.69-1.74-4.09-.42-6.66l-1.33.35c-.24-.54.59-.74.78-.95-1.76-5.13-4.96-10.19-4.25-15.38.78-.65-.04-1.94.84-2.5-1.94-1.23-2.27-2.9-2.37-4.5l.16.03-.38-.7c.11-.05.27-.08.37-.08-1.34-.63-.37-2.16-.06-3.25l.16.04c-.68-5.96-3.89-11.31-2.45-17.48,2.01-2.92-1.27-5.98.49-9.27,1.32-.63.16-7.03-.45-7.61Z"/>
          <path class="cls-1" d="M89.7,5.21v.03c.58.02.37-.02,0-.03Z"/>
          <polygon class="cls-1" points="73.75 18.97 73.76 18.93 72.95 19.11 73.75 18.97"/>
          <path class="cls-1" d="M73.27,9.74c-.19.41-.05.43.18.38.04-.15,0-.28-.18-.38Z"/>
          <path class="cls-1" d="M88.75,1.99c.06-.2-.29-.14-.68-.04.05.22.09.36.09.36.14-.11.45-.21.6-.32Z"/>
          <path class="cls-1" d="M80.86,2.43l-.46-.09c.11.13.28.13.46.09Z"/>
        </g>
        <g>
          <path class="cls-1" d="M134.75,67.35c-.06.05.03.08,0,0h0Z"/>
          <path class="cls-1" d="M148.32,28.81s0-.02.02-.04c-.2-.19-.37-.36-.51-.48l.49.52Z"/>
          <path class="cls-1" d="M153.8,24.78s.05.01.08.02c-.13-.11-.25-.22-.08-.02Z"/>
          <path class="cls-1" d="M142.55,43.08s0,.1.07.16c-.04-.05-.07-.11-.07-.16Z"/>
          <path class="cls-1" d="M135.62,79.26s-.01-.02-.03-.03c-.05.02-.09.04-.16.07l.19-.05Z"/>
          <path class="cls-1" d="M135.15,79.15c.2-.15.39.03.45.09.37-.16.39-.32.22-.47-.43,0-.35.31-.67.38Z"/>
          <path class="cls-1" d="M139.99,99.84h-.18c.05,0,.12,0,.18,0Z"/>
          <path class="cls-1" d="M161.56,51.84s.03.07.06.11c.03-.03,0-.07-.06-.11Z"/>
          <path class="cls-1" d="M139.55,96.55l-.66.13c.28-.04.49-.08.66-.13Z"/>
          <path class="cls-1" d="M147.83,28.29l-.18-.2s.1.12.18.2Z"/>
          <path class="cls-1" d="M158.2,20.73c.15.15.27.25.38.34h.02s-.4-.34-.4-.34Z"/>
          <path class="cls-1" d="M187.06,12.96c-.04-.07-.09-.15-.13-.23l.12.48c.03-.06.03-.15,0-.25Z"/>
          <path class="cls-1" d="M166.07,17.5c-.04-.06-.08-.13-.13-.2-.25-.09-.56.1-.89.4l.52.65.51-.85Z"/>
          <path class="cls-1" d="M183.85,28.25l-1.5-.99c1.39-1.85,3.12-1.05,4.01-3.13l.1.36c.22.09-.13-.68.09-1.19.21-.51,1.04-.75,3.44.54l.08.15c.07-.07-.09-.37.3-.08l-.93-.65c.06-.51-.08-1.35.23-1.65.16.12.35.41.48.64l.76-.71.76.82c0-.65-1.13-2.65.16-1.86-.97-1.29-.05-1.03-.49-1.71.12.16.33.38.52.59.36-.39,1-1.15.89-1.99,0,0-.77-.57-1.72-1.28-.95-.7-2.09-1.54-2.73-2.17.88.05.1-.26-.27-.67l.13.37c-.59-.15-1.03-1.03-1.36-1.17.04.07.09.15.14.24l-.03-.13c.1.15.14.26.16.36.1.19.16.35.02.35l-.03-.1c-.11.22-.48.23-.64.24l-.38-.74c.43,1.54-3.22-1.02-3.7-.81-.94-.67-.83.75-1.61.62-.97.27-1.04-.79-1.83-1.15-.8-.12.61.77.43.94l-1.24-.6c.32-.31-.14-.62-.38-.85-.63.21-2.33-.53-1.6.99-1.16-.18-1.54-.73-1.9-.59.27.18.64.27.82.55-.7-.42-.04.24.17.3-.03.89-4.06-.96-3.1.64l-.19-.27c.68,1.18,1.6,2.15,1.73,2.98l-.55-.35.04.69c-.46-.21-.57-.58-.67-.71-.12.87-1.25.76-1.96,1.06l2.84,2.51c-.99-.34-2.94-1.06-2.3-.02l-1.05-.75c-2.44-1.08-.03,1.35-.86,1.1l-1.34-.66.5-.38c-.92-.14-1.4-.32-2.36-.68l.02.03c.06.02.12.06.18.12l-.05.08c.37.57.41,1.13.04,1.38-.61.27-.31,1.36-2.01.96l.74,1.2-1.12-.11-.74-.81c.6-.45,1.38-1.72,2.07-2.41l-.31-.39c-.44.38-.6,1.2-.96,1.37-.28-.04-1.4-.58-1.64-1.37l.45,1.05c-1.35,1.42-1.36,1.39-3.68,1.96l.51.27c-.06.52-.12,1.03-.83.48-1,.75-2.4,1.18-3.99.82l.83,1.01c-.24.13-1.94-.88-.69.45l.05.81c-.31.21.1.87-.73.68h0s0,0,0,0c-.05-.01-.1-.03-.17-.04l.08.07c-.97.24.88.76-.29.98-.9-.37,1.04,1.32.52,1.47l-1.73-.85c-1.36-.04-.05,1.22-.75,2.18-.86.04-2.3-.7-3.17-1.88,1.02,1.48.73.88.95,1.95-.62-.34-.7-.49-1.1-1-1.04.01.27.7-.05,1.06.97.91,2.57,2.29,2.55,2.46l.44.1c.28.81.23,1.42-.64,1.48l-.53-.4-.08.68-.72-.46c-.1.28-.21.56-.28.85l.25.03c-.02.24-.13.96-.71,1.03l-.39-.27c-1.82.1-.68,1.92-1.21,3.05l-.74-.64c-1.05-.13,1.21.87.52,1.05l-1.03-.59c1.1,1.18-.6.32-1.28.3l1.42.66c-.2.11-.4.22-.58.34-.75.32-1.89-.62-2.55-1.11l.85,1.01-1.24-.6c1.24,1.08-.38.17.09,1.1-.48-.21-.67-.48-.96-.41l1.25,1.77-.49-.92,1.73,1.01c1.07,1.24-.56.6-.27,1.24l-.39-.53c.11.83-.66.47-1.24.62.39.06.97.15,1.07.51,0,.23-.68-.22-.97-.15,1.17.64,1.58,1.38.81,1.5-.17-.09-.33-.18-.42-.26.14.2.42.4.04.43l-1.28-.75,1.1.95c-.5.05.35.85-.55.4l-.21-.26-1.09,1.64-1.1-.45c1.42.83-.99.75.91,1.49-1.17-.09.17,1.63-1.88.56-.64,1.16,1.06,2.54-.43,3.65-2.01-.12-1.89,1.58-2.4,2.49.18,2.14.49,3.54.67,5.63-2.97.57.27,3.11-1.47,4.06l1,.54c-1.88.55.04,2.17-1.79,3.13.43.36.56.53.59.6.06-.05.27-.1.96-.04-.52.28-.02,1.03-1.37.82l-.13-.1c-1.36-.2.54,1.11-.68,1.37l1.48-.06-.31.62-.27-.2c1.48,1.55,1.07,2.49.64,3.47-.43.96-.92,1.95.58,3.27-1.6-.36.84.52-.91.54-2.2.66.46,1.23,1.07,1.74.09,0,.19,0,.32.03l-.18.93c-2.23-.49,1.86.61-.04.16-1.61,2.52.36,5.6-.03,8.46l.55-.2c0,.72.79,1.49-.02,2.17-.8.69,1.63.92,1.75,1.1,1.07.39-.76,1.28-.71,1.01.39.57,2.49.74,1.81,1.75-1.78.71,2.32,1.86.26,2.37l.18-.03c-1.17,1.44,1.54,1.8.57,3.29,0,0-.16.02-.3.02,2.27.19,4.56.31,6.82.37l6.57-2.71c1.65-1.13,3.33-2.22,5.03-3.26-.8-1.29-1.56-2.63-2.27-4,.48-1.32,1.02-2.6,1.58-3.85-.67-2.72-1.16-5.48-1.46-8.28l-1.59-.59c1.41-.85,1.28-1.77,1.14-2.74-.17-.96-.42-1.99.68-2.78l-1.36-.16c-.03-.52.81-.4,1.06-.5.08-2.33-.06-4.76.2-7.1.19-2.36,1.03-4.54,2.42-6.27.93-.09.94-1.39,1.95-1.33-1.01-1.84-.5-3.25.28-4.39l.11.11.07-.69c.11.03.26.1.35.16-.74-1.19.87-1.68,1.7-2.21l.11.12c.6-1.13,1.3-2.19,1.79-3.37l.77-1.75.9-1.69c1.16-2.28,2.79-4.34,5.26-5.61,1.69-.08,2.38-1.18,3.22-2.29.85-1.08,1.66-2.33,3.37-2.48.65.37,1.86-.55,2.98-1.61,1.15-1.03,2.14-2.31,2.18-2.69Z"/>
          <path class="cls-1" d="M190.15,22.26l-.02.02c.27.51.2.3.02-.02Z"/>
          <polygon class="cls-1" points="170.44 16.17 170.49 16.15 169.85 15.6 170.44 16.17"/>
          <path class="cls-1" d="M177.92,10.5c-.46.07-.4.19-.23.36.15-.05.24-.16.23-.36Z"/>
          <path class="cls-1" d="M192.15,20.02c.18-.04-.03-.32-.29-.62-.14.14-.24.23-.24.23.15.08.37.31.53.39Z"/>
          <path class="cls-1" d="M188.03,13.29l-.15-.45c-.06.16.02.31.15.45Z"/>
        </g>
        <g>
          <path class="cls-1" d="M75.13,131.22c-.11-.02-.11.1,0,0h0Z"/>
          <path class="cls-1" d="M145.5,111.74s.04-.01.07-.01c.04-.33.07-.62.1-.84l-.17.86Z"/>
          <path class="cls-1" d="M157.37,113.4s.05.06.07.09c0-.2,0-.4-.07-.09Z"/>
          <path class="cls-1" d="M118.96,118.15c-.1,0-.14.09-.16.2.04-.08.09-.16.16-.2Z"/>
          <path class="cls-1" d="M56.83,142.41s.02-.03.03-.05c-.07-.04-.13-.06-.21-.11l.18.16Z"/>
          <path class="cls-1" d="M56.75,141.8c.34.08.17.44.11.56.47.25.73.14.88-.18-.25-.44-.69-.11-.99-.38Z"/>
          <path class="cls-1" d="M26.16,165.61l-.05-.23c0,.07.02.15.05.23Z"/>
          <path class="cls-1" d="M124.73,142.61c-.04.05-.09.09-.13.14.08,0,.11-.06.13-.14Z"/>
          <path class="cls-1" d="M31.15,162.16l-.45-.67c.16.3.31.51.45.67Z"/>
          <path class="cls-1" d="M145.68,110.89l.07-.32c-.03.07-.05.19-.07.32Z"/>
          <path class="cls-1" d="M168.18,114.21c0,.25,0,.45.03.62.01,0,.03,0,.03,0l-.06-.63Z"/>
          <path class="cls-1" d="M217.77,136.1c.02-.1.05-.2.07-.31l-.37.49c.12-.02.22-.08.3-.18Z"/>
          <path class="cls-1" d="M182.54,118.93c.02-.09.07-.17.08-.27-.21-.31-.86-.43-1.71-.48l-.16.98,1.79-.23Z"/>
          <path class="cls-1" d="M193.76,144.21l-.98-2.25c2.28,0,3.85.6,5.34,1.1,1.49.52,2.89.97,4.96.63l-.31.37c.39.57,1.93-3.72,6.4,3.22l-.06.19c.21.03.32-.36.58.27l-.67-1.48c.75-.3,1.55-1.06,2.41-.95.11.26.05.68-.02.99l2.1.28.22,1.43c.81-.47,1.37-3.16,2.54-1.19-.03-2,1.17-.82,1.27-1.8,0,.25.09.64.14,1,1.04.13,3.05.26,3.83-.5,0,0-.62-1.27-1.32-2.83-.69-1.57-1.48-3.4-1.7-4.53,1.27.95.45-.1.36-.8l-.24.42c-.72-.72-.36-1.86-.69-2.31-.03.09-.05.21-.08.32l.1-.13c-.02.21-.09.35-.17.44-.07.25-.17.43-.38.28l.08-.1c-.41.05-.98-.34-1.23-.49l.29-.96c-1.19,1.64-3.54-4.1-4.45-4.39-.56-1.46-2.09-.24-3.05-1.15-1.71-.79-.53-1.66-1.23-2.72-.99-.88-.05,1.18-.53,1.14l-1.03-1.67c.82.07.54-.61.48-1.02-1.14-.45-2.62-2.68-3.43-.82-1.4-1.3-1.25-2.06-1.92-2.31.16.4.55.82.47,1.22-.46-.99-.36.15-.13.39-1.14.65-4.43-4.62-5.07-2.52l.07-.39c-.53,1.56-.46,3.18-1.32,3.94l-.33-.8-.82.57c-.37-.6-.06-.99-.03-1.18-1.26.55-2.68-.61-4.02-1.06l.72,4.63c-.95-1.22-2.71-3.61-3.16-2.21l-.47-1.57c-1.93-3.14-1.79,1-2.59.03l-.96-1.77,1.16.19c-1.06-.98-1.46-1.57-2.27-2.75l-.02.04c.06.08.09.16.09.26l-.17.02c-.24.78-.92,1.27-1.74,1.13-1.16-.35-2.19.76-3.9-1.14l-.62,1.61-1.32-1.13.11-1.32c1.38.22,4.05-.02,5.85.09l.1-.6c-1.07-.11-2.34.36-3.03.16-.31-.3-1.07-1.76-.34-2.58l-.78,1.22c-3.59-.23-3.6-.07-7.26-1.82l.29.68c-.77.34-1.52.68-1.68-.41-2.24-.4-4.56-1.2-6.01-2.93l-.35,1.55c-.47-.1-1.17-2.47-1.43-.29l-1.03.67c-.66-.13-1.06.75-1.8-.16h0s0,0,0,0c-.04-.06-.09-.12-.14-.18,0,.05,0,.09,0,.13-1.49-.66.02,1.4-1.68.54-.56-1.1-.58,1.99-1.4,1.66l-.87-2.22c-1.53-1.25-1.74,1-3.89,1.06-1.07-.77-1.67-2.66-1.05-4.37-.87,2.09-.38,1.36-1.6,2.42-.24-.83-.11-1.02.13-1.79-1.19-.91-.66.81-1.51.82-.15,1.6-.28,4.15-.54,4.27l.35.47c-.83.91-1.75,1.37-2.84.64l-.02-.8-1.06.48-.15-1.01-1.54.43.24.26c-.36.15-1.52.61-2.26.17l-.03-.57c-2.13-1.54-3.49.96-5.72,1.41l.15-1.18c-.92-1.05.01,1.79-.98,1.33l-.23-1.41c-.56,1.95-1.1-.27-1.77-.9l.52,1.82c-.37-.1-.74-.16-1.1-.23-1.24-.42-1.06-2.21-1.03-3.21l-.58,1.59-.4-1.6c-.29,1.99-.63-.21-1.49.98-.18-.6.02-1-.37-1.2l-1.3,2.57.84-1.18.27,2.39c-.74,1.97-1.46-.02-2.09.76l.39-.79c-1.12.78-1.36-.22-2.15-.63.3.4.74,1,.3,1.39-.34.19-.35-.8-.74-1,.21,1.6-.5,2.55-1.42,1.98-.03-.23-.06-.45-.04-.6-.15.3-.17.73-.59.42l-.14-1.79-.34,1.81c-.54-.38-.93,1.03-1.12-.16l.18-.41-3.48.32-.36-1.38c.09,1.99-2.03-.32-1.37,2.04-.95-1.16-2.3,1.47-2.57-1.29-2.3.33-2.81,3.26-5.84,2.67-1.59-2.01-4.03-.56-5.81-.22-3.08,1.98-4.96,3.47-8.05,5.41-1.56-1.18-2.74-.46-3.85.42-1.11.91-2.14,2.03-3.56,1.59l-.1,1.44c-2.2-1.35-3.4,1.84-6.15.88-.26.73-.43,1.01-.53,1.1.11.02.35.18.72.92-.79-.28-1.63.88-2.22-.66l.07-.22c-.6-1.54-1.39,1.45-2.61.44l1.08,1.45c-.4.06-.78.15-1.17.22l.14-.44c-1.44,2.87-3.23,3.27-5.05,3.64-1.79.39-3.59.78-4.82,3.45-.36-1.98-.34,1.32-1.4-.5-2.32-1.75-1.65,1.59-2.14,2.67.05.09.1.2.13.37l-1.6.62c-.45-2.81.04,2.51-.28.09-2.43.21-4.59,1.61-6.78,3.08-2.14,1.56-4.3,3.23-6.66,4.32l.57.44c-1.14.63-1.99,2.22-3.43,1.89-1.44-.32-.73,2.68-.97,2.98-.17,1.58-2.34.27-1.9.09-.75.94-.14,3.53-2.02,3.66-1.83-1.46-2.05,4.39-3.65,2.44l.12.18c-2.73-.12-2.26,3.46-4.97,3.62,0,0-.09-.17-.14-.35.53,2.92,1.12,5.83,1.75,8.69l6.52,5.58c2.41.95,4.78,1.91,7.15,2.94,2.04-2.39,4.17-4.72,6.36-7.01,2.53-.8,5.07-1.53,7.6-2.2,4.74-3.68,9.66-7.16,14.78-10.34l.2-2.31c2.37.6,4.11-.42,5.82-1.61,1.72-1.16,3.49-2.38,5.71-2.14l-.63-1.53c.94-.57,1.31.41,1.67.56,8.91-4.5,18.13-10.1,27.48-10.48,1.13.83,3.52-.48,4.45.46,2.36-2.6,5.46-3.24,8.37-3.68l-.07.2c.43-.21.87-.39,1.3-.57.08.12.13.31.11.45,1.28-1.69,3.98-.68,5.95-.41l-.08.2c2.74-.46,5.45-.77,8.11-1.33,2.66-.59,5.33-.97,7.99-1.4,2.67-.46,5.36-.63,8.07-.66,2.71-.08,5.46.28,8.21.89,2.53,1.34,5.28,1.35,8.18,1.18,2.88-.13,5.89-.14,8.69,1.27.44.9,3.62,1.4,6.84,1.69,3.21.35,6.49.41,7.08.17Z"/>
          <path class="cls-1" d="M211.41,146.3h-.05c-.2.66-.06.43.05,0Z"/>
          <polygon class="cls-1" points="190.13 122.03 190.21 122.06 190.04 121.04 190.13 122.03"/>
          <path class="cls-1" d="M207.47,124.97c-.72-.39-.79-.24-.75.06.27.11.52.11.75-.06Z"/>
          <path class="cls-1" d="M217.4,146.8c.34.18.34-.26.27-.78-.39-.05-.66-.08-.66-.08.15.22.24.63.39.86Z"/>
          <path class="cls-1" d="M218.85,137.36l.29-.5c-.27.06-.32.26-.29.5Z"/>
        </g>
        <g>
          <path class="cls-1" d="M96.46,162.87c-.08-.02-.09.06,0,0h0Z"/>
          <path class="cls-1" d="M150.24,152.49s.03,0,.05,0c.04-.22.07-.41.09-.55l-.14.56Z"/>
          <path class="cls-1" d="M159.1,153.66s.03.04.05.06c0-.13,0-.26-.05-.06Z"/>
          <path class="cls-1" d="M130.17,156.22c-.08,0-.11.05-.13.13.04-.05.08-.1.13-.13Z"/>
          <path class="cls-1" d="M81.57,169.06s.02-.02.03-.03c-.04-.03-.08-.05-.13-.09l.11.12Z"/>
          <path class="cls-1" d="M81.61,168.65c.24.08.06.31,0,.38.3.2.51.15.67-.05-.12-.31-.48-.12-.66-.32Z"/>
          <path class="cls-1" d="M55.51,181.81v-.16s0,.1,0,.16Z"/>
          <path class="cls-1" d="M133.09,172.41s-.08.06-.11.1c.06,0,.09-.04.11-.1Z"/>
          <path class="cls-1" d="M59.72,180.01l-.19-.5c.06.22.13.37.19.5Z"/>
          <path class="cls-1" d="M150.39,151.93l.06-.21s-.04.12-.06.21Z"/>
          <path class="cls-1" d="M167.22,154.15c0,.16.01.29.03.41.01,0,.02,0,.02,0l-.05-.41Z"/>
          <path class="cls-1" d="M205.93,167.59c0-.07.02-.13.02-.21l-.23.34c.09-.02.16-.06.21-.13Z"/>
          <path class="cls-1" d="M178.14,157.13c.01-.06.05-.11.05-.18-.17-.19-.67-.27-1.3-.3l-.09.65,1.34-.17Z"/>
          <path class="cls-1" d="M187.99,173.55l-.91-1.44c3.6-.1,5.02,1.43,8.18.92l-.21.25c.36.39,1.19-2.53,5.28,1.96l-.03.13c.17.01.22-.25.48.16l-.66-.95c.56-.22,1.12-.76,1.8-.71.11.17.1.45.07.66l1.66.14.31.94c.59-.34.76-2.14,1.86-.87-.22-1.33.82-.57.8-1.23.03.17.13.42.21.66.82.05,2.38.06,2.9-.48,0,0-2.49-3.28-3.06-4.77,1.06.59.33-.08.2-.54l-.14.28c-.62-.44-.45-1.21-.74-1.5-.01.06-.02.14-.03.22l.07-.09c0,.14-.04.23-.09.3-.03.17-.09.29-.26.2l.05-.07c-.31.05-.78-.18-.98-.28l.13-.64c-.76,1.09-3.04-2.58-3.74-2.75-.54-.94-1.6-.12-2.39-.67-1.35-.45-.53-1.06-1.13-1.74-.81-.56.05.78-.31.76l-.89-1.08c.62.03.36-.42.29-.69-.89-.27-2.14-1.7-2.64-.45-1.14-.81-1.07-1.32-1.59-1.47.14.26.46.53.43.79-.41-.65-.26.1-.08.26-.83.44-3.6-2.95-3.96-1.53l.03-.26c-.32,1.04-.18,2.1-.78,2.62l-.29-.52-.59.39c-.31-.39-.1-.65-.08-.78-.93.38-2.06-.37-3.09-.63l.77,3.02c-.79-.79-2.23-2.29-2.51-1.38l-.43-1.03c-1.59-2.04-1.32.68-1.97.05l-.79-1.15.89.11c-.84-.63-1.16-1.02-1.82-1.76v.03s.06.1.06.16l-.13.02c-.15.52-.65.85-1.28.77-.88-.22-1.63.51-2.98-.72l-.43,1.06-1.03-.72.05-.87c1.05.11,3.06-.05,4.42,0l.06-.39c-.81-.06-1.75.25-2.28.13-.25-.19-.85-1.14-.33-1.69l-.56.81c-2.71-.08-2.72,0-5.5-1.14l.23.45c-.57.23-1.14.45-1.27-.26-1.69-.2-3.44-.77-4.53-1.89l-.26,1.02c-.36-.06-.88-1.62-1.07-.19l-.77.44c-.49-.09-.79.51-1.35-.08h0s0,0,0,0c-.03-.04-.07-.08-.11-.12v.08c-1.11-.44.02.92-1.26.34-.41-.72-.44,1.3-1.06,1.07l-.64-1.46c-1.14-.83-1.31.63-2.93.67-.79-.49-1.21-1.73-.72-2.86-.68,1.37-.3.89-1.23,1.57-.16-.55-.07-.67.13-1.17-.87-.61-.5.52-1.14.51-.15,1.05-.29,2.71-.49,2.79l.26.32c-.64.58-1.35.87-2.15.38v-.52s-.81.3-.81.3l-.09-.67-1.16.28.17.17c-.27.11-1.16.4-1.7.09v-.37c-1.55-1.05-2.65.55-4.35.79l.16-.77c-.65-.71-.06,1.17-.79.86l-.12-.93c-.5,1.28-.81-.18-1.28-.6l.31,1.2-.82-.17c-.91-.31-.69-1.48-.62-2.13l-.5,1.02-.23-1.06c-.31,1.29-.46-.16-1.16.59-.11-.4.06-.65-.22-.8l-1.1,1.64.69-.75.08,1.58c-.65,1.27-1.09-.06-1.6.44l.33-.51c-.88.47-1-.17-1.57-.45.2.27.5.67.15.92-.26.12-.22-.53-.5-.67.07,1.05-.52,1.69-1.17,1.28-.01-.15-.02-.29,0-.39-.13.19-.17.47-.47.25v-1.18s-.36,1.17-.36,1.17c-.38-.27-.76.64-.83-.15l.16-.26-2.62.08-.18-.92c-.06,1.3-1.49-.29-1.15,1.3-.62-.78-1.81.94-1.81-.89-1.72.16-2.33,2.03-4.54,1.52-1.02-1.4-2.93-.5-4.28-.39-2.45,1.14-3.97,2.11-6.45,3.18-2.07-1.71-3.7,1.69-5.67.94l-.24.95c-1.46-1-2.71,1.07-4.62.23-.27.47-.44.64-.52.7.08.02.23.14.42.65-.55-.23-1.3.49-1.54-.56l.08-.14c-.25-1.05-1.19.89-1.96.14l.61,1.02-.89.07.16-.28c-2.81,3.58-5.59.63-8.17,4.02.02-1.34-.43.85-.94-.43-1.43-1.34-1.43.93-1.95,1.61.02.06.04.14.04.26l-1.25.29c.1-1.9-.35,1.67-.22.04-3.59-.04-7.14,2.82-10.89,3.83l.34.34c-.93.32-1.82,1.29-2.79.96-.97-.34-1,1.71-1.23,1.9-.41,1.04-1.73-.04-1.38-.12-.69.57-.74,2.36-2.11,2.26-1.03-1.16-2.28,2.75-3.06,1.28l.05.13c-1.91-.36-2.27,2.1-4.23,1.92,0,0-.03-.12-.03-.25-.2,2.02-.37,4.03-.53,6.03l3.49,4.44,4.56,2.68c2.03-1.43,4.08-2.85,6.16-4.21,2.03-.34,4.07-.62,6.09-.9,4.26-2.14,8.6-4.12,13.02-5.95l.53-1.54c3.38,1.11,5.99-2.44,9.38-1.85l-.26-1.05c.8-.31.94.35,1.2.47,7.51-2.56,15.24-5.91,22.58-5.83.81.58,2.8-.19,3.46.46,2.06-1.74,4.53-2.02,6.86-2.22l-.07.13,1.06-.36c.06.08.08.21.05.3,1.11-1.15,3.18-.37,4.72-.15l-.08.13c8.75-.71,16.96-3.06,25.75-1.37,4,1.81,8.86-.33,13.42,1.51.38.55,2.92.9,5.49,1.02,2.56.18,5.15.19,5.6,0Z"/>
          <path class="cls-1" d="M201.99,174.52h-.04c-.09.44,0,.29.04,0Z"/>
          <polygon class="cls-1" points="184 159.04 184.06 159.06 183.89 158.4 184 159.04"/>
          <path class="cls-1" d="M197.25,160.58c-.57-.24-.61-.14-.56.05.21.06.4.06.56-.05Z"/>
          <path class="cls-1" d="M206.69,174.68c.28.1.23-.19.13-.52-.31-.02-.52-.04-.52-.04.14.14.25.42.39.56Z"/>
          <path class="cls-1" d="M206.87,168.38l.17-.34c-.2.05-.22.18-.17.34Z"/>
        </g>
      </g>
      <g>
        <path class="cls-1" d="M280.76,115.33c-.02-.06-.08.02,0,0h0Z"/>
        <path class="cls-1" d="M310.28,86.17s0-.04,0-.06c-.27-.06-.51-.11-.69-.15l.7.21Z"/>
        <path class="cls-1" d="M333.95,84.74s-.04.05-.07.08c.16-.02.33-.02.07-.08Z"/>
        <path class="cls-1" d="M307.82,106.68c-.05.05-.02.12.04.19-.03-.06-.05-.13-.04-.19Z"/>
        <path class="cls-1" d="M275.39,106.64s.02.02.03.04c.05-.03.09-.06.16-.09l-.19.06Z"/>
        <path class="cls-1" d="M275.88,106.79c-.19.19-.39-.03-.46-.11-.36.22-.37.43-.19.62.43-.03.33-.41.64-.51Z"/>
        <path class="cls-1" d="M286.33,77.32l.06.19c0-.06-.03-.12-.06-.19Z"/>
        <path class="cls-1" d="M326.25,116.6c0,.09-.03.17-.03.25.07-.1.06-.18.03-.25Z"/>
        <path class="cls-1" d="M282.68,81.26l.52.44c-.2-.21-.36-.34-.52-.44Z"/>
        <path class="cls-1" d="M309.59,85.96l-.26-.08c.06.03.15.05.26.08Z"/>
        <path class="cls-1" d="M334.16,95.68c-.21.01-.37.05-.51.08,0,.01,0,.03,0,.03l.51-.11Z"/>
        <path class="cls-1" d="M325.03,149.49c.08,0,.17-.02.26-.03l-.49-.2c.05.11.12.19.22.24Z"/>
        <path class="cls-1" d="M331.8,110.42c.08.01.15.04.24.04.22-.26.25-.92.19-1.76l-.83-.02.4,1.74Z"/>
        <path class="cls-1" d="M312.95,126.86l1.63-1.59c.9,4.93-.71,7.28.74,11.49l-.37-.23c-.37.63,3.39.89-1.03,7.82h-.17c.03.24.37.23-.07.71l.99-1.2c.44.7,1.25,1.3,1.38,2.24-.18.2-.52.28-.79.31l.33,2.3-1.06.73c.6.69,2.87.32,1.64,2.24,1.56-.75.97.92,1.76.67-.19.1-.48.32-.75.5.21,1.12.7,3.23,1.52,3.73,0,0,3.23-4.47,4.89-5.69-.39,1.59.2.41.73.09l-.4-.1c.36-.96,1.36-.98,1.63-1.46-.08,0-.18.02-.28.03l.13.06c-.17.05-.3.03-.4-.02-.21.02-.38-.02-.33-.28l.11.05c-.15-.39-.01-1.08.05-1.38l.83-.02c-1.6-.67,2.31-4.79,2.34-5.73,1.03-.97-.31-2.12.19-3.32.22-1.9,1.19-.97,1.89-1.94.49-1.2-.96.26-1.03-.21l1.12-1.45c.12.82.61.36.93.2.11-1.23,1.59-3.21-.08-3.54.75-1.68,1.42-1.7,1.48-2.41-.3.25-.56.73-.89.74.71-.68-.19-.31-.35-.04-.75-.99,2.89-5.34,1.06-5.5h.33c-1.36-.21-2.67.21-3.44-.48l.59-.49-.6-.69c.43-.49.8-.26.96-.27-.66-1.14.04-2.78.18-4.18l-3.66,1.59c.82-1.21,2.49-3.39,1.29-3.59l1.22-.75c2.3-2.45-1.08-1.62-.4-2.59l1.32-1.24v1.19c.66-1.21,1.09-1.7,1.94-2.67h-.04c-.05.06-.12.1-.2.11l-.04-.16c-.68-.12-1.16-.72-1.15-1.56.15-1.19-.88-2.09.48-4.04l-1.4-.42.77-1.46,1.1-.04c-.01,1.4.5,4.01.62,5.81h.5c-.04-1.05-.57-2.24-.49-2.95.21-.35,1.32-1.27,2.09-.66l-1.1-.62c-.26-3.56-.31-3.57.78-7.36l-.54.35c-.36-.73-.71-1.45.18-1.7.08-2.25.65-4.62,1.96-6.19l-1.32-.25c.04-.48,1.96-1.34.13-1.46l-.64-1.01c.05-.67-.72-1.04-.03-1.87h0c.04-.05.09-.11.14-.16-.04,0-.07.01-.11.02.44-1.63-1.15.14-.57-1.77.86-.69-1.7-.49-1.52-1.48.58-.4,1.15-.84,1.69-1.36.1-.27.12-.62.12-.93.01-.24-.08-.73-.2-1.12l-.1-.33-.22-.59-.25-.57-.14-.29c-.14-.3-.3-.61-.47-.9-.34-.59-.74-1.15-1.17-1.66l-.16-.19-.12-.14-.37-.39c-.52-.52-1.13-1.02-1.83-1.47-1.39-.9-3.09-1.46-4.6-1.6-.38-.04-.74-.06-1.09-.06-.5,0-1.08.04-1.65.14-1.15.18-2.34.59-3.37,1.15-.52.28-1,.6-1.43.94l-.4.33-.28.25c-.37.35-.72.73-1.04,1.13-.63.76-1.25,1.94-1.26,2.02-.15.33-.28.67-.4,1.02l-.16.52-.06.27-.09.47-.07.48v.27s-.03.53-.03.53l.03.35c.04.47.12.76.18,1.06.13.58.24,1.07.23,1.64-.68,1.06-2.27,1.48-3.68.81,1.7.92,1.11.43,1.91,1.59-.71.16-.85.04-1.48-.22-.84.97.62.62.56,1.35,1.32.25,3.41.57,3.49.82l.42-.27c.68.82.96,1.72.24,2.59l-.66-.08.26.98h-.85s.14,1.36.14,1.36l.25-.16c.08.33.25,1.4-.27,1.92l-.47-.09c-1.69,1.39,0,2.98-.29,4.88l-.88-.46c-1.08.37,1.41.52.75,1.14l-1.16-.26c1.34,1.03-.54.73-1.22.96l1.55.25-.56.7c-.77.7-2.03-.11-2.77-.47l.97.94-1.33-.35c1.36.93-.37.29.17,1.25-.5-.14-.71-.41-1.01-.28.46.59.9,1.19,1.32,1.81l-.5-.98,1.81.87c1.08,1.34-.63.87-.36,1.59l-.37-.6c.05,1-.74.66-1.35.85.39.06,1,.11,1.06.55-.03.28-.68-.22-.99-.13,1.14.7,1.41,1.63.57,1.77-.16-.11-.3-.22-.39-.31.1.23.35.49-.05.51l-1.16-.94.91,1.17c-.5.02.09,1.02-.69.39l-.14-.31c-.54.54-1.11,1.03-1.68,1.47l-.89-.79c1.04,1.29-1.2.34.24,1.75-1.06-.58-.72,1.67-2-.27-.58.35-.75,1.05-1.01,1.75-.3.66-.78,1.25-1.86,1.23-.77-.71-1.46-.75-2.1-.55-.66.17-1.33.52-1.91.66-1.94,1.51-3.35,2.62-5.78,3.57-.89-1.31-1.72-.95-2.6-.6-.9.44-1.82.82-2.46.03l-.52,1.01c-.31-.97-.93-.89-1.47-.97-.55-.05-1.22-.12-1.27-1.1-.4.35-.59.44-.66.46.02.06,0,.27-.28.9-.11-.52-.76-.32-.05-1.46l.12-.09c.36-.59.16-.52-.12-.44-.26.07-.48.08-.18-.42-.29.4-.57.8-.84,1.21l-.14-.41.27-.16c-.46.24-.73.21-1.02.2-.26-.04-.52-.06-.65-.25-.26-.39-.39-.76-.4-1.27.02-.54-.03-.95-.22-1.45-.14-.54-.66-.93-1.5-1.57,1.64.08-.93-.45.79-.81,1.03-.56.82-.82.33-1.12-.48-.29-1.32-.57-1.63-.9-.09,0-.19,0-.32-.03.05-.42.05-.82.14-1.25,2.19.74-1.8-.91.06-.22.85-1.64.97-3.49,1.25-5.54.26-2.03.64-4.24,1.72-6.06l-.6-.02c.51-.94.28-2.49,1.5-2.86,1.18-.35-.54-2.23-.47-2.59-.5-1.3,1.67-1.12,1.38-.82.24-.96-1.03-2.81.41-3.59,1.81.63.63-4.23,2.39-3.07l-.14-.12c1.11-.31,1.48-1.11,1.8-2,.35-.86.64-1.83,1.84-2.1,0,0,.09.13.16.27-.73-2.37-1.37-4.85-1.92-7.43-1.96-1.34-3.96-2.66-5.98-3.94-2.33-.29-4.73-.5-7.19-.63-1.1,1.74-2.23,3.44-3.26,5.19-.96,1.83-2,3.56-2.83,5.44-1.12,1.23-2.32,2.43-3.38,3.76-1.05,1.35-2.16,2.68-3.15,4.12-2.9,7.83-4.77,16.33-3.73,25.69.59.62,1.12,1.2,1.79,1.8-.97,2.9-.19,6.24,1.49,9.49.43.82.83,1.62,1.3,2.42.53.81,1.05,1.62,1.58,2.41.47.81,1.06,1.6,1.65,2.42.58.81,1.1,1.67,1.63,2.52l1.05-.9c1.64,1.27,1.02,1.83,1.29,2.36,4.05,2.95,8.44,4.35,12.48,5,4.07.67,7.86.5,11.45.09,3.61-.4,6.99-1.19,10.26-2.12,3.29-.88,6.41-2.07,9.56-3.25.78.07,1.97-.52,3.13-1.11,1.14-.65,2.24-1.33,2.97-1.26,1.32-2.08,2.85-3.95,4.31-5.8,1.46-1.85,2.91-3.66,4.2-5.48l.03.22c.31-.63.6-1.27.88-1.91.14-.02.29.05.35.17.15-2.6,2.73-5.24,4.13-7.7l.09.2c2.88-7.56,3.17-14.9,3.06-21.61l-.13-4.74v-.77s-.02-.02-.02-.02h0s-.85-.06-.85-.06l-1.37-.08c-.9-.06-1.84-.14-2.71-.23-.69-.05-1.37-.12-2.05-.21-1.25-.15-2.22-.31-2.88-.49-.2-.07-.29-.07-.42-.13l-.28-.14c-.16-.15-.04-.09-.14,0-.02.02-.04.01-.07.03-.05.05-.09.09-.14.13-.1.08-.21.14-.33.19-.18.03-.63.26-1.01.4-.39.15-.79.26-1.2.35l-1.65.47c-.57.15-1.14.28-1.71.39l-.86.16-1.1.24-2.19.45h0s.07.56.07.56c.12,1.08.18,2.56.16,3.97-.01,1.44-.1,2.94-.25,4.45-1.94,5.69,1.41,12.19-.24,18.81-1.31,1.24.11,14.48.77,15.64Z"/>
        <path class="cls-1" d="M315.27,146.4v-.05c-.59.02-.37.09,0,.05Z"/>
        <polygon class="cls-1" points="330.37 118.44 330.36 118.53 331.16 118.18 330.37 118.44"/>
        <path class="cls-1" d="M331.33,136.11c.16-.8.02-.83-.21-.71-.03.29.02.54.21.71Z"/>
        <path class="cls-1" d="M316.52,152.85c-.04.42.3.25.68,0-.07-.43-.12-.72-.12-.72-.13.24-.43.48-.56.72Z"/>
        <path class="cls-1" d="M324.33,150.98l.47.12c-.12-.24-.29-.23-.47-.12Z"/>
      </g>
      <g>
        <path class="cls-1" d="M481.54,116.97c0-.06-.04.03,0,0h0Z"/>
        <path class="cls-1" d="M501.76,77.77s0-.03,0-.06c-.28-.03-.52-.05-.7-.07l.71.12Z"/>
        <path class="cls-1" d="M524.92,83.54s-.04.05-.07.07c.16-.02.33-.01.07-.07Z"/>
        <path class="cls-1" d="M501.43,98.58c-.04.06,0,.13.07.19-.04-.06-.07-.12-.07-.19Z"/>
        <path class="cls-1" d="M474.57,108.84s.02.02.03.03c.05-.04.08-.09.14-.13l-.17.1Z"/>
        <path class="cls-1" d="M475.07,108.89c-.14.24-.39.05-.47-.02-.31.31-.27.52-.05.68.41-.12.24-.49.52-.66Z"/>
        <path class="cls-1" d="M471.04,74.67l.17.12s-.1-.08-.17-.12Z"/>
        <path class="cls-1" d="M521.34,105.03c.01.08,0,.16.02.23.05-.1.02-.17-.02-.23Z"/>
        <path class="cls-1" d="M470.41,80.2l.67.07c-.28-.06-.49-.08-.67-.07Z"/>
        <path class="cls-1" d="M501.05,77.65l-.27-.05c.06.02.16.03.27.05Z"/>
        <path class="cls-1" d="M525.15,93.89c-.21.02-.37.05-.51.09,0,.01,0,.03,0,.03l.51-.12Z"/>
        <path class="cls-1" d="M517.47,146.32c.08,0,.17-.02.26-.04l-.49-.18c.05.11.13.18.23.22Z"/>
        <path class="cls-1" d="M523.08,108.17c.08,0,.15.04.24.03.21-.25.22-.89.15-1.71h-.83s.45,1.67.45,1.67Z"/>
        <path class="cls-1" d="M504.68,124.71l1.58-1.6c1.05,4.77-.49,7.12,1.09,11.16l-.37-.21c-.35.62,3.41.75-.78,7.64h-.17c.04.24.37.22-.04.7l.95-1.2c.46.66,1.29,1.22,1.45,2.13-.17.21-.51.29-.78.33l.41,2.23-1.04.75c.62.65,2.88.21,1.72,2.12,1.54-.78,1,.86,1.79.58-.19.1-.47.33-.73.52.24,1.08.8,3.11,1.64,3.58,0,0,3.07-4.46,4.69-5.71-.34,1.56.22.39.73.06l-.4-.08c.33-.94,1.33-1,1.58-1.48-.08,0-.18.02-.27.04l.14.05c-.17.05-.3.03-.4,0-.21.02-.38,0-.34-.26l.11.04c-.17-.38-.05-1.05,0-1.34l.83-.05c-1.62-.59,2.15-4.73,2.15-5.65,1-.98-.38-2.05.08-3.23.16-1.85,1.16-.99,1.82-1.95.45-1.18-.96.29-1.04-.17l1.08-1.44c.15.79.62.33.93.17.07-1.2,1.49-3.16-.19-3.44.7-1.65,1.36-1.7,1.41-2.39-.29.25-.54.72-.87.75.69-.69-.2-.3-.35-.02-.78-.94,2.73-5.27.89-5.37l.33-.02c-1.37-.15-2.66.29-3.45-.35l.58-.49-.62-.65c.41-.49.79-.28.95-.29-.69-1.09-.04-2.69.07-4.06l-3.61,1.66c.79-1.2,2.4-3.37,1.19-3.53l1.2-.76c2.23-2.44-1.12-1.54-.46-2.5l1.28-1.24.04,1.15c.62-1.19,1.03-1.68,1.86-2.64h-.04c-.05.06-.11.1-.2.12l-.04-.16c-.68-.1-1.18-.67-1.18-1.48.12-1.16-.93-2,.39-3.92l-1.41-.37.74-1.43,1.1-.07c.02,1.36.59,3.87.75,5.61h.5c-.06-1.03-.62-2.17-.55-2.86.2-.34,1.29-1.26,2.07-.69l-1.12-.57c-.33-3.43-.39-3.45.64-7.12l-.53.35c-.37-.69-.73-1.38.15-1.64.05-2.17.6-4.45,1.9-5.94l-1.32-.22c.04-.46,1.96-1.27.13-1.38l-.64-.94c.06-.63-.71-.97-.01-1.73h0s0,0,0,0c.04-.04.09-.09.14-.14-.04,0-.07.01-.11.02.48-1.46-1.16.09-.53-1.58.89-.58-1.69-.46-1.45-1.28l1.8-.93c.96-1.54-.91-1.61-1.1-3.81.57-1.1,2.06-2.09,3.56-1.29-.91-.53-1.21-.67-1.43-1.03-.05-.08-.1-.17-.15-.27-.05-.19-.1-.38-.16-.59-.08-.27-.17-.57-.27-.9-.44-1.62-1.58-4.08-3.97-5.98-1.16-.93-2.53-1.64-3.84-2.04-1.31-.41-2.52-.53-3.52-.53-.93,0-2.16.13-3.64.63-1.47.49-3.21,1.46-4.6,2.92-1.41,1.44-2.35,3.24-2.8,4.76-.23.77-.36,1.47-.43,2.1l-.04.46-.02.28v.03c.01.36.04.75.09,1.18.08.24.18.57.29.69-.69.24-.84.22-1.5-.23-.17.51-.22.62-.19.75.03.12.14.18.27.23.26.09.62.16.63.5,1.33.1,3.45.19,3.55.42l.4-.3c.75.7,1.12,1.52.48,2.4l-.67-.02.35.91-.85.06.26,1.29.23-.17c.11.3.38,1.32-.1,1.87l-.47-.04c-1.56,1.49.27,2.91.16,4.81l-.92-.37c-1.04.48,1.46.38.86,1.06l-1.18-.15c1.43.89-.46.79-1.12,1.1l1.57.07-.48.77c-.7.8-2.04.14-2.81-.14l1.07.84-1.36-.19c1.46.78-.35.36.31,1.29-.52-.07-.76-.32-1.04-.14.51.55,1.04,1.13,1.53,1.71l-.62-.96,1.91.62c1.25,1.22-.53,1.01-.15,1.73l-.45-.56c.18,1.05-.66.83-1.24,1.18.4-.03,1.01-.09,1.13.36.01.3-.72-.09-1.01.08,1.23.5,1.67,1.42.84,1.76-.17-.08-.34-.16-.44-.24.14.22.43.43.03.56l-1.31-.71,1.11,1.02c-.51.15.26,1.05-.63.6l-.19-.3c-.46.74-.94,1.45-1.45,2.12l-1.06-.54c1.32,1.02-1.19.84.61,1.8-1.17-.17-.34,2-2.11.51-1,1.16.21,3.25-1.95,4.03-1.91-.78-2.69.94-3.78,1.59-.64,1.1-1.17,2.01-1.93,3.02-.84,1.07-1.74,2.16-2.68,3.17-1.43-.68-2-.05-2.37.58-.12.49-.25,1.12-.67.42.03.36.05.74.06,1.1-.33-.82-.47-.72-.72-.62-.22.1-.56.13-.53-.74-.22.43-.34.56-.37.58,0,.06-.03.27-.23.93,0-.51-.55-.1.06-1.34l.09-.12c.29-.63.16-.49,0-.39-.14.15-.47.17-.22-.37l-.71,1.29c-.08-.14-.16-.32-.24-.47l.27-.16c-1.81.71-2.42-.44-2.62-1.39-.25-1-.28-1.84-2.27-2.69,1.64-.24-1.02-.25.6-.95,1.8-1.46-.93-1.2-1.71-1.78-.08.02-.18.04-.32.04l-.13-1.32c2.34.25-2.01-.51,0-.24.84-3.61-1.51-8.7-1.15-13.36l-.55.25c0-1.17-.79-2.59.07-3.53.85-.93-1.55-1.86-1.66-2.21-1.03-.95.9-1.91.81-1.48-.31-1.03-2.36-1.98-1.51-3.46,1.87-.49-1.84-4.01.29-4.04l-.18-.02c1.52-1.82-.94-3.68.52-5.64,0,0,.15.05.29.12-2.06-1.49-4.09-3.03-6.1-4.64l-7.15.65c-2.02,1.14-4.01,2.33-6,3.57.22,3.66.56,7.3,1.03,10.9-.71,2.89-1.34,5.83-1.88,8.8.37,3.54.86,7.07,1.47,10.57.6,3.47,1.33,7.32,2.71,11.45.69.44,1.39.86,2.09,1.27-.47,2.89.89,5.8,3,8.63,2.09,2.82,4.65,5.14,6.82,8.05l.94-1.01c1.57,1.05,1.05,1.65,1.33,2.14,4.3,2.64,9.57,3.99,14.58,3.5,2.51-.24,4.96-.92,7.24-1.92,1.12-.48,2.32-1.13,3.13-1.61.85-.51,1.63-1.03,2.35-1.53,1.43-1,2.63-1.94,3.74-2.78,1.2-.9,2.38-1.79,3.55-2.68,2.53-1.95,4.99-4.01,7.35-6.07,1.51-.29,3.37-3.54,4.66-3.8.98-4.34,2.93-7.97,4.57-11.59l.08.2c.16-.61.3-1.22.43-1.83.13-.03.29.01.37.11-.4-2.36,1.68-5.06,2.73-7.45l.11.18c1.81-7.23,1.63-14.28.85-21.05l-.15-1.24-.08-.56-.03-.22c0-.05,0-.01,0-.01h0s0,0,0,0l-1,.06-5.29.26c-1.38.15-2.56.2-3.86.13-.4-.07-.45.08-.61.11-.16.05-.26-.17-.24-.17,0,.12-.1.23-.25.23-.07,0-.15-.02-.21-.05-.05-.04-.23.05-.33.07-.98.27-1.99.46-3.01.56l-4.78.71-2.24.29v-.03s0,.04.01.06l.03.14.13.9c.16,1.33.29,2.77.38,4.21.17,2.88.16,5.84-.13,8.85-1.88,5.69,1.6,11.98.12,18.48-1.29,1.25.49,14.13,1.2,15.24Z"/>
        <path class="cls-1" d="M507.62,143.66v-.05c-.59.04-.36.1,0,.05Z"/>
        <polygon class="cls-1" points="521.86 115.99 521.85 116.08 522.64 115.71 521.86 115.99"/>
        <path class="cls-1" d="M523.33,133.11c.14-.78,0-.81-.23-.69-.02.28.04.52.23.69Z"/>
        <path class="cls-1" d="M509.07,149.88c-.02.41.31.23.68-.03-.09-.41-.14-.69-.14-.69-.12.23-.42.48-.54.72Z"/>
        <path class="cls-1" d="M516.82,147.79l.48.1c-.13-.23-.3-.21-.48-.1Z"/>
      </g>
      <g>
        <path class="cls-1" d="M438.76,67.94c.2-.17.07-.15,0,0h0Z"/>
        <path class="cls-1" d="M401.24,119.48s0,0,0,0c.57-.29,1.07-.54,1.45-.73l-1.46.73Z"/>
        <path class="cls-1" d="M398.63,121.79s-.07.06-.11.09c.29-.2.58-.41.11-.09Z"/>
        <path class="cls-1" d="M400.3,116.5s-.01-.06-.08-.11c.04.04.08.08.08.11Z"/>
        <path class="cls-1" d="M408.64,66.16s.06-.01.1-.03c-.03-.05-.07-.09-.09-.17v.19Z"/>
        <path class="cls-1" d="M409.35,65.68c.27.2-.4.4-.61.46.19.37.61.4,1.2.22.32-.43-.6-.35-.58-.67Z"/>
        <path class="cls-1" d="M364.91,67.88l.11-.17s-.08.11-.11.17Z"/>
        <path class="cls-1" d="M380.72,107.61c.03-.1.08-.2.1-.29-.11.12-.12.22-.1.29Z"/>
        <path class="cls-1" d="M370.85,68.23l.06-.68c-.05.28-.06.49-.06.68Z"/>
        <path class="cls-1" d="M402.7,118.75l.55-.28c-.13.07-.32.16-.55.28Z"/>
        <path class="cls-1" d="M400.42,122c-.19.23-.34.42-.47.58h0s.47-.58.47-.58Z"/>
        <path class="cls-1" d="M443.3,127.37c-.01-.08-.03-.17-.06-.26l-.15.5c.1-.06.17-.14.21-.25Z"/>
        <path class="cls-1" d="M404.27,124.46c0-.08,0-.15,0-.24-.16-.21-.42-.22-.78-.15l-.03.84.8-.45Z"/>
        <path class="cls-1" d="M422.26,141.66l-1.73-1.46c4.77-1.38,7.25-.01,11.25-1.88l-.19.39c.66.31.52-3.46,7.8.23l.02.17c.23-.06.19-.39.71,0l-1.29-.87c.64-.5,1.15-1.37,2.06-1.6.22.16.33.49.38.75l2.23-.57.83.98c.62-.67.02-2.88,2.03-1.86-.9-1.48.8-1.06.47-1.82.12.18.37.44.57.69,1.08-.32,3.1-1.03,3.51-1.9,0,0-4.74-2.75-6.11-4.27,1.61.23.39-.24.01-.73l-.05.4c-.98-.26-1.11-1.25-1.61-1.47.01.08.04.17.06.27l.04-.14c.07.17.06.29.02.4.04.21.02.38-.24.36l.04-.11c-.37.19-1.06.12-1.36.09l-.11-.82c-.49,1.66-4.94-1.81-5.88-1.74-1.06-.92-2.05.52-3.28.15-1.89-.03-1.08-1.09-2.1-1.68-1.23-.37.36.93-.1,1.05l-1.54-.97c.8-.2.29-.64.1-.94-1.22.01-3.31-1.26-3.47.43-1.72-.58-1.81-1.24-2.52-1.23.27.27.77.48.81.82-.74-.64-.29.22,0,.35-.9.84-5.53-2.35-5.5-.51l-.04-.33c-.06,1.38.48,2.64-.12,3.47l-.54-.54-.62.67c-.52-.38-.34-.77-.36-.93-1.05.77-2.73.23-4.12.22l1.92,3.49c-1.27-.7-3.57-2.16-3.65-.94l-.85-1.15c-2.62-2.06-1.49,1.23-2.51.64l-1.34-1.2,1.16-.12c-1.25-.53-1.77-.91-2.8-1.67v.04c.07.05.11.11.13.19-.05.02-.12.04-.14.05.03.68-.26,1.18-.72,1.19-.32-.06-.6.19-.95.28-.34.09-.75.03-1.02-.66-.21.49-.44.99-.68,1.48-.19-.25-.36-.51-.49-.77l.47-1.17c.63-.01,1.9-.6,2.62-.75v-.51c-.37.05-.93.61-1.21.54-.13-.21-.08-1.37.31-2.17-.15.38-.32.77-.5,1.15-.61.14-.95.23-1.19.13-.22-.1-.38-.38-.34-1.02l-.37.61c-.48.39-1.05.78-.25-.22-.46-.13-.3-.85,1.5-2.48l-1.87,1.55c-.04-.07,2.81-2.41.04-.22l-1.1.72c.03-.1-1.33.82-.23-.07h0s0,0,0,0c.07-.06.15-.12.23-.18-.07.05-.13.09-.19.13.7-.67-2.06,1.44-1.14.56,1.61-1.14-3.25,2.08-3,1.75l3.47-2.32c1.81-1.25-1.6.82-2.56,1.12,0,0,0-.02.02-.05,1.7-1.1,5.18-2.98,8.3-4.7-3.76,2.05-2.47,1.36-4.15,2.19,1.51-.79,1.78-.94,3.18-1.68,1.78-.95-1.34.69-1.21.58-1.37.68-3.13,1.56-4.59,2.28-1.44.7-2.54,1.22-2.6,1.23l-.92.51c-1.27.48-1.62.39-.07-.52l1.28-.56c-.14,0-.27-.01-.4-.03l1.62-.7c-.07-.06-.13-.12-.18-.2l-.46.22c-.14,0-.37-.18.55-.64l.81-.27c1.45-.66,1.35-.73,1.02-.81-.35-.07-.95-.15-.81-.46l1.36-.17c1.53-.41-2.14.32-1.24-.05l1.7-.25c-2.05.09.66-.31,1.51-.44l-2.15.23.63-.28c.88-.29,2.62-.17,3.67-.2-.51,0-1.01-.03-1.49-.08l1.72.02c-1.93-.12.34-.02-.63-.17.59.06.83.08,1.22.12-.74-.1-1.42-.27-2.06-.5.27.11.56.21.86.29l-2.26-.37c-1.49-.56.49-.27.01-.57.17.1.35.19.53.28-.31-.4.58-.15,1.09-.08-.38-.12-.98-.24-1.15-.45-.04-.12.71.23.97.27-1.27-.54-1.71-1.13-.99-1.03.16.1.32.2.41.27-.15-.15-.42-.37-.09-.28l1.22.85c-.37-.29-.73-.6-1.07-.92.23.03.06-.02.14-.28.05-.22.13-.35.51-.02l.08.38,2.34-2.42.97.69c-1.09-1.26,1.61-1.06-.07-2.22,1.27.18.91-2.45,2.5-.74,1.49-1.63.47-3.93,3-5.35,1.06.22,1.87-.28,2.56-.99.35-.36.67-.76.97-1.16.26-.33.51-.65.76-.96.28-.36.56-.69.84-1,3.24-5.5,4.88-8.8,7.8-13.58,2.84-1.43,4.08-3.41,4.97-5.17.92-1.81,1.48-3.4,3.93-5.29-.35-.13-.72-.25-1.09-.36,2.19-1.41,3.08-2.72,3.99-4.05.92-1.35,1.85-2.72,4.59-4.87-.34-.34-.35-.57-.29-.7-.2.18-.76.55-2.13,1.2,1.56-1.22,1.62-2.28,4.28-3.47l.12.08c1.65-.73,1.54-1.34,1.95-2.15-.99.12-1.75.14-1.32-.32l-2.29,1.5-1.46-.23,1.07-.3c-3.73.86-6.03,1.21-7.76,1.3-1.73.09-2.88-.08-4.07-.26-2.29-.36-4.99-.74-10.44.81,2.71-1.64-2.36.87-.68-.9.1-1.1-1.04-.97-2.33-.49-1.31.48-2.78,1.32-3.77,1.63-.07.09-.16.19-.35.33l-2.53-.18c1.53-1.13.74-.66-.09-.15-.81.51-1.64,1.06-.34.1-3.03-.79-7.4-.73-11.71-.56-1.52.08-3.07.15-4.6.23-1.29.04-2.58.02-3.83-.16l.23.57c-1.27-.09-2.83.62-3.8-.28-.97-.9-2.08,1.47-2.45,1.57-1.04,1-2.02-.95-1.57-.85-1.12.29-2.15,2.32-3.72,1.48-.56-1.87-4.23,1.9-4.31-.22v.18c-2.03-1.47-3.88,1.09-6.05-.23,0,0,.04-.16.11-.3l-4.3,6.48,1.34,7.06,3.87,5.7,10.27-1.37,8.24,2.14,4.99-.25,2.5-.13,1.25-.06.31-.02c.07,0,.03,0,.05-.01l.04-.02c.22-.13.53-.26.93-.39.48-.54,1.01-1.08,1.6-1.62-.91,1.41-.79,1.3-.16,1.09.53-.21,1.6-.53-.06.49l2.65-1.41c.41-.09-1.32.79-1.77,1.03h.08c-.02.29.36.66.03,1.52-.15.41-.43.89-.83,1.28-.1.1-.2.19-.31.27l-.17.11s-.14.15-.24.25l-.33.35c-.87.93-1.76,1.82-2.69,2.66-1.31.2-2.68,2.84-3.9,2.85-.33,1.8-1.03,3.37-1.91,4.8-.44.72-.93,1.4-1.43,2.05-.8.98-1.59,1.95-2.37,2.92v-.26s-1.48,2.35-1.48,2.35c-.18.04-.34-.01-.38-.13-.42,1.53-1.61,3.07-3.14,4.69-1.52,1.61-3.39,3.32-4.93,4.89l-.04-.19c-4.64,5.84-8.83,11.55-12.71,16.95-3.89,5.42-7.48,10.52-11.37,15.73,8.33-1.21,15.83-2.07,23.32-2.31,3.91.63,10.36-.41,16.52-1.45,6.24-1.06,12.33-2.14,18.5-1.99,1.36,1.2,14.31-1.48,15.39-2.27Z"/>
        <path class="cls-1" d="M441.28,137.38h-.05c.08.59.12.36.05,0Z"/>
        <polygon class="cls-1" points="412.26 125.14 412.35 125.14 411.92 124.37 412.26 125.14"/>
        <path class="cls-1" d="M429.51,122.46c-.8-.08-.82.06-.68.28.29,0,.53-.08.68-.28Z"/>
        <path class="cls-1" d="M447.49,135.48c.41,0,.22-.33-.07-.68-.41.11-.69.19-.69.19.25.11.51.38.77.49Z"/>
        <path class="cls-1" d="M444.83,127.9l.07-.48c-.23.14-.19.31-.07.48Z"/>
      </g>
      <g>
        <path class="cls-1" d="M572.37,120.75c.03-.09-.07-.1,0,0h0Z"/>
        <path class="cls-1" d="M533.29,85.54s.01-.05.03-.08c-.23-.17-.42-.33-.56-.46l.54.54Z"/>
        <path class="cls-1" d="M541.96,75.67s.07,0,.11,0c-.13-.11-.24-.23-.11,0Z"/>
        <path class="cls-1" d="M536.98,115.84c.03.1.11.12.21.12-.08-.03-.15-.06-.21-.12Z"/>
        <path class="cls-1" d="M566.05,104.51s.02.02.03.03c.04-.05.07-.09.13-.14l-.17.11Z"/>
        <path class="cls-1" d="M566.56,104.56c-.14.26-.39.06-.47-.02-.29.33-.26.56-.03.73.41-.12.22-.53.5-.72Z"/>
        <path class="cls-1" d="M556.01,74.63l.19.04c-.05-.02-.12-.03-.19-.04Z"/>
        <path class="cls-1" d="M555.36,105.89c.05.01.08.04.14.04-.01-.05-.07-.05-.14-.04Z"/>
        <path class="cls-1" d="M557.01,79.52l.66-.14c-.28.03-.49.08-.66.14Z"/>
        <path class="cls-1" d="M532.75,85l-.2-.21c.04.06.11.13.2.21Z"/>
        <path class="cls-1" d="M550.57,68.81c.12.17.24.29.34.39.01,0,.03-.01.03-.01l-.37-.38Z"/>
        <path class="cls-1" d="M598.39,69.75c0-.08.02-.17.02-.26l-.25.44c.1-.02.17-.08.23-.17Z"/>
        <path class="cls-1" d="M564.42,64.88c-.02-.08-.01-.15-.04-.24-.3-.14-.91,0-1.62.36l.27.79c.45-.33.91-.65,1.39-.92Z"/>
        <path class="cls-1" d="M581.11,80.64l-1.24-1.51c.81-.31,1.53-.46,2.19-.53.68,0,1.29.06,1.89.11,1.2.14,2.28.01,3.77-.54l-.17.35c.21.2.39-.63,1.11-.92.36-.14.86-.15,1.55.17.34.16.73.4,1.17.75.43.4.91.91,1.43,1.55l-.02.17c.16,0,.2-.34.47.14l-.69-1.12c.53-.35,1.05-1.09,1.73-1.12.12.2.12.55.1.81l1.65-.08.31,1.14c.58-.47.78-2.75,1.86-1.22-.19-1.66.85-.78.85-1.61.03.21.12.52.19.82.83,0,2.45-.11,3.04-.82,0,0-.58-.99-1.28-2.19-.69-1.21-1.52-2.68-1.82-3.61,1.16.69.37-.12.22-.69l-.16.37c-.67-.54-.5-1.52-.83-1.88-.01.08-.02.18-.03.28l.07-.12c0,.18-.04.3-.1.39-.03.21-.09.37-.29.27l.06-.09c-.34.06-.87-.13-1.1-.24l.12-.82c-.77,1.5-3.58-2.89-4.44-3.05-.73-1.14-1.84.17-2.83-.4-1.62-.33-.78-1.24-1.59-1.99-1.04-.56.2.98-.22,1.02l-1.24-1.2c.73-.07.34-.59.2-.92-1.09-.19-2.92-1.55-3.19.1-1.54-.72-1.6-1.38-2.26-1.42.24.29.7.54.72.88-.66-.7-.27.2-.02.35-.43.41-1.67-.36-2.85-.78-1.18-.46-2.29-.79-2.25.13l-.05-.33c-.01,1.37.51,2.63,0,3.46l-.51-.54-.53.67c-.49-.37-.35-.76-.38-.92-.92.71-2.45.4-3.74.49.72,1.1,1.42,2.2,2.09,3.31-1.14-.61-3.41-1.86-3.31-.66l-.94-1.05c-2.71-1.62-1.11,1.45-2.11,1.02l-1.45-.95,1.03-.32c-1.24-.31-1.8-.59-2.94-1.14v.04c.08.03.14.08.18.15l-.14.08c.11.68-.27,1.27-.99,1.56-1.09.27-1.44,1.51-3.66.92l.21,1.42c-.52-.09-1.01-.09-1.53-.13l-.51-.98c1.16-.63,3.29-1.9,4.82-2.67l-.16-.48c-.94.41-1.79,1.32-2.45,1.49-.38-.07-1.65-.76-1.41-1.69l-.12,1.23c-1.52.8-2.24,1.32-3.08,1.63-.83.36-1.82.41-3.68.99l.57.28c-.43.69-.84,1.36-1.52.74-.96.58-2.05.98-3.09,1.4-1.05.4-2.13.63-3.18.61l.61,1.19c-.41.26-2.32-.68-1.25.8l-.34,1.18c-.54.43-.29,1.23-1.36,1.29h0s0,0,0,0c-.07,0-.14,0-.21,0l.09.07c-1.48.74.88.76-.88,1.55-1.09-.17.87,1.55.13,2.03l-2-.44c-.91.32-1.04.84-1.09,1.48-.07.63-.05,1.41-.62,2.46-1.13.63-2.82.41-3.65-1,.94,1.81.72.99.74,2.64-.73-.12-.8-.32-1.2-.9-1.37.8.16.98-.27,1.9,1.09.83,2.9,1.96,2.87,2.27l.51-.17c.28,1.19.23,2.22-.79,3.06l-.62-.24c-.05.4-.02.86-.01,1.28l-.84-.15-.15,1.83.28-.19c.03.45-.02,1.81-.54,2.54l-.47-.09c-.83,1.05-.84,2.17-.54,3.26.35,1.09.86,2.19,1.06,3.44l-1-.25c-.85.97,1.51.1,1.16,1.16l-1.17.2c1.67.7-.17,1.22-.65,1.99l1.49-.57c-.06.42-.07.8-.09,1.21-.22,1.36-1.73,1.23-2.57,1.2l1.4.62-1.29.51c1.71.25-.1.76,1.08,1.62-.47.24-.84.05-.93.5.82.43,1.63.82,2.43,1.19l-1.17-.79,1.94-.51c1.79.57.28,1.53,1.12,2.05l-.76-.28c.95,1.01.19,1.39.08,2.26.25-.37.62-.9,1.07-.53.25.31-.56.48-.62.91,1.24-.45,2.27.02,2.08,1.01-.17.08-.35.15-.48.15.29.09.64.02.52.49l-1.41.5,1.57-.03c-.15.62,1.12.67.23,1.11l-.39-.08,1.52,3.17-.96.69c1.55-.63.59,1.93,2.19.66-.54,1.21,2.13,1.59.07,2.67.64.95,1.59,1.32,2.47,1.78.91.43,1.75.96,2.24,2.34-.75,2.02,1.57,3.54,2.74,4.8,1.52.85,2.83,1.43,4.14,2,1.28.6,2.61,1.11,4.13,1.84.03,2.07,1.8,2.36,3.32,2.81l30.6,9.11-15.03-20.95c-.53-.74-.97-1.5-.59-2.37l-1.18-.18c1.3-1.67-1.25-2.89-.13-5.03-.57-.27-.78-.45-.85-.53-.03.09-.19.26-.84.49.32-.61-.54-1.4.8-1.72l.17.08c1.34-.32-1.04-1.26-.06-2.13l-1.33.71-.03-.97.34.16c-4.28-2.98-.33-6.07-4.27-8.9,1.68.03-1.02-.49.65-1.03,1.84-1.55-.96-1.58-1.75-2.17-.08.02-.18.04-.32.04l-.19-1.39c2.36.17-2.05-.44-.02-.24.57-3.93-2.38-7.96-2.83-12.18l-.5.34c-.19-1.05-1.23-2.11-.58-3.14.64-1.03-1.89-1.28-2.06-1.55-1.19-.57.46-1.89.47-1.5-.53-.83-2.72-1.1-2.26-2.6,1.68-.96-2.78-2.9-.76-3.53l-.18.04c.96-2.03-1.92-2.82-1.14-4.93,0,0,.16-.01.31,0l-7.2-1.7-6.49,3-4.61,4.67,3.63,7.91-.21,7.23,5.46,15.83,1.87.69c-1.75,3.94,2.52,7.08,1.62,11.04l1.34-.32c.36.93-.48,1.11-.64,1.41,1.16,3.52,2.58,7.02,3.89,10.48l16.15-12.29c-4.13-2.1-7.96-4.9-9.89-8.55.24-1.08-1.41-2.14-.92-3.13-1.32-.25-2.21-.89-2.99-1.63-.66-.77-1.21-1.67-1.52-2.55h.17s-.65-.68-.65-.68c.08-.08.23-.15.34-.17-.73-.18-.98-.77-1.04-1.44.04-.66.19-1.38.32-1.93l.16.02c-.59-2.92-1.02-4.51-.34-7.23.69-2.64,2.86-5.64,6.3-7.21.95-.15,1.83-.45,2.62-.92.39-.24.76-.52,1.12-.82.39-.28.79-.57,1.19-.85,1.53-1.24,3.43-2.36,5.68-2.25.3.26,1,.24,1.87.03.44-.1.92-.26,1.43-.42.53-.12,1.08-.28,1.63-.45,2.16-.8,4.48-1.36,4.82-1.79Z"/>
        <path class="cls-1" d="M594.41,78.97h-.04c-.08.58,0,.37.04,0Z"/>
        <polygon class="cls-1" points="571.92 64.39 572 64.39 571.52 63.66 571.92 64.39"/>
        <path class="cls-1" d="M587.71,62.15c-.72-.21-.75-.07-.65.17.26.04.48,0,.65-.17Z"/>
        <path class="cls-1" d="M599.12,78.69c.28.11.25-.25.15-.67-.32,0-.53,0-.53,0,.14.17.24.5.38.68Z"/>
        <path class="cls-1" d="M599.43,70.72l.19-.44c-.22.07-.24.24-.19.44Z"/>
      </g>
      <g>
        <g>
          <path class="cls-1" d="M638.9,109.77s-.04-.05,0,0h0Z"/>
          <path class="cls-1" d="M647.34,126.62h0c.06-.27.12-.51.16-.68l-.17.68Z"/>
          <path class="cls-1" d="M649.3,128.39s.02.05.02.07c-.02-.16-.03-.33-.02-.07Z"/>
          <path class="cls-1" d="M642.51,125.56s-.07-.01-.15.03c.06-.02.11-.03.15-.03Z"/>
          <path class="cls-1" d="M638.09,101.1s.01.01.02.02c.06,0,.1-.01.18-.02h-.19Z"/>
          <path class="cls-1" d="M638.54,101.27c-.21.07-.39-.09-.43-.15-.39.05-.43.17-.28.31.42.07.38-.16.7-.16Z"/>
          <path class="cls-1" d="M642.12,85.14l.13.12s-.08-.08-.13-.12Z"/>
          <path class="cls-1" d="M625.65,137.92c-.06-.01-.1-.04-.16-.04.03.06.09.06.16.04Z"/>
          <path class="cls-1" d="M640.59,87.37l.61.3c-.25-.13-.44-.22-.61-.3Z"/>
          <path class="cls-1" d="M647.51,125.94l.06-.26c-.01.06-.04.15-.06.26Z"/>
          <path class="cls-1" d="M652.48,128.16c.07.19.12.35.17.48h.01s-.18-.48-.18-.48Z"/>
          <path class="cls-1" d="M677.47,123.58c-.06-.05-.13-.11-.2-.17l.28.4c0-.07-.02-.15-.08-.23Z"/>
          <path class="cls-1" d="M658.67,128.68c-.03-.07-.06-.14-.09-.22-.2-.15-.46-.08-.75.1l.36.75.48-.63Z"/>
          <path class="cls-1" d="M675.96,140.47l-1.73-.79c1.85-2.33,3.93-1.93,4.92-4.55l.14.36c.26.02-.2-.7.01-1.33.21-.65,1.08-1.12,4.09-.9l.12.12c.08-.12-.16-.35.35-.24l-1.2-.23c-.01-.59-.34-1.4-.05-1.86.21.05.48.26.68.43l.71-1.14,1.07.44c-.15-.69-1.96-2.09-.32-2.04-1.44-.75-.36-1.02-1.05-1.46.18.09.48.19.75.3.27-.59.71-1.77.27-2.5,0,0-1.04-.07-2.26-.25-1.23-.18-2.64-.46-3.46-.8.85-.32,0-.29-.5-.52l.26.3c-.6.1-1.33-.57-1.7-.58.06.05.14.11.21.18l-.08-.11c.14.1.23.19.28.28.16.14.27.27.14.32l-.06-.09c-.03.24-.38.38-.54.44l-.61-.57c.89,1.35-3.34,0-3.68.24-1.06-.45-.55.88-1.32.88-.83.41-1.14-.59-1.94-.82-.74-.02.73.65.61.84l-1.26-.44c.22-.32-.27-.56-.53-.76-.52.25-2.15-.37-1.21,1.01-1.07-.14-1.48-.65-1.77-.53.27.18.6.26.81.52-.68-.38,0,.23.2.28.07.87-3.66-1.02-2.62.49l-.2-.27c.72,1.16,1.63,2.12,1.82,2.92l-.53-.36.07.66c-.43-.24-.55-.59-.65-.73-.07.8-1.1.59-1.7.78l2.6,2.71c-.95-.38-2.68-1.32-2.15-.27l-.93-.9c-2.12-1.5-.11,1.27-.84.87l-1.12-.91.46-.25c-.78-.33-1.17-.61-1.94-1.22v.03c.06.04.11.09.15.16l-.05.06c.27.62.25,1.15-.09,1.27-.52.04-.45,1.18-1.77.17l.39,1.34-.88-.52-.43-1.02c.54-.15,1.32-.95,1.94-1.36l-.22-.45c-.37.19-.59.87-.89.88-.22-.14-1-1.06-1.09-1.83l.22,1.08c-1.17.64-1.22.74-2.85-.04l.28.49c-.14.39-.3.79-.63-.05-.77.02-1.69-.45-2.33-1.75l.17,1.29c-.16-.05-.66-1.96-.42-.15l-.19.61c-.19-.07-.23.71-.5-.02h0s0,0,0,0c-.02-.05-.03-.1-.05-.15,0,.04,0,.07.01.11-.41-.56.11,1.16-.38.43-.18-.91-.06,1.66-.32,1.38l-.25-1.84c-.3-1.08-.35.76-.87.76-.2-.65.04-2.28.25-3.65-.3,1.66-.17,1.09-.44,1.86.1-.7.15-.84.27-1.46.06-.83-.17.61-.25.56-.3,1.29-.83,3.34-.92,3.42l-.03.41c-.37.69-.67.86-.67.18l.22-.63-.31.26.29-.8c-.12.08-.24.11-.35.13l-.06.23c-.1.06-.44.19-.36-.26l.23-.41c.2-.74.05-.62-.28-.48-.32.13-.8.41-1.08.3l.65-.72c.47-.85-.96,1.13-.84.63l.76-.91c-1.16,1.07.02-.35.34-.89l-1.01,1.2.04-.45c.16-.6,1.27-1.52,1.85-2.09l-.98.74.96-.98c-1.23,1.02.11-.26-.66.18.37-.36.63-.52.75-.72-.55.35-1.13.72-1.72,1.01.27-.1.55-.26.82-.39l-1.54,1.29c-1.37.81-.08-.46-.64-.27l.55-.24c-.59,0,.07-.53.32-.95-.27.27-.65.68-.95.71-.15-.02.53-.46.66-.67-1.09.77-1.84.94-1.47.39.16-.1.32-.2.43-.26-.22.07-.52.24-.32-.03l1.28-.76-1.31.61c.27-.34-.74.03.12-.48l.29-.08-.21-1.13,1.04-.58c-1.49.68.28-.76-1.53.19.87-.63-1.05-.45,1.08-1.29-.09-.72-2.34-.25-1.63-1.53,1.75-.98.9-1.6.91-2.23-1.12-.88-1.93-1.57-2.85-2.73,2.59-1.19-1.16-1.87.25-2.92l-1.11-.14c1.67-.7-.43-1.49,1.21-2.38-.48-.19-.64-.29-.68-.34-.05.04-.25.1-.94.13.47-.25-.15-.73,1.22-.7l.14.06c1.36.04-.66-.71.56-.97l-1.48.12.27-.45.28.13c-1.58-1.04-1.2-1.8-.78-2.47.4-.69.97-1.31-.41-2.45,1.56.46-.79-.49.95-.28,2.24-.16-.36-.94-.89-1.45-.09-.01-.18-.03-.31-.08.09-.22.21-.44.33-.66,2.09.8-1.7-.83.07-.11,1.01-.76,1.22-1.77,1.32-2.87.1-1.09.28-2.25.92-3.17l-.57-.08c.26-.49-.21-1.36.77-1.47.98-.1-1.05-1.33-1.07-1.52-.75-.77,1.23-.5,1.07-.35-.08-.55-1.8-1.72-.74-2.06,1.82.5-1.03-2.51.97-1.69l-.16-.08c1.75-.2-.2-2.02,1.44-2.33,0,0,.13.09.25.18-1.65-1.52-3.27-3.11-4.87-4.74l-6.56-2.66c-2-.25-4.02-.46-6.06-.63-.48,1.97-.96,3.91-1.23,5.92-1.24,1.21-2.58,2.41-3.75,3.74-.43,1.95-.93,3.86-1.26,5.82-.27,1.99-.63,3.93-.8,5.93l1.47,1.08c-1.53.95-1.6,2.32-1.56,3.68.12,1.39.36,2.78-.69,4.03l1.37.09c.05.71-.8.65-1.05.82.05,1.68.33,3.4.57,5.08.28,1.68.76,3.37,1.08,5.01.39,1.65.87,3.28,1.14,4.9.36,1.63.69,3.26.76,4.93-.63.91.64,2.54-.03,3.39.6.34,1.11.72,1.54,1.12.48.41.89.85,1.25,1.31.75.92,1.18,1.94,1.81,2.95h-.18s.86.77.86.77c-.06.1-.19.2-.3.23.86.16,1.33.79,1.67,1.59.34.8.72,1.76,1.11,2.54l-.18.03c1.54,1.83,3.73,3.39,6,4.65,1.23.6,2.49,1.14,3.74,1.61,1.31.36,2.64.73,3.92.93,5.19.79,9.59.25,14.02.25,1.08.3,2.21.27,3.23,0,1-.28,1.99-.74,2.95-1.23.92-.53,1.84-1.07,2.81-1.5.95-.44,1.93-.78,3.09-.85.69.45,2.73-.64,4.55-1.99.89-.69,1.73-1.44,2.36-2.07.6-.66.99-1.19,1.03-1.42Z"/>
          <path class="cls-1" d="M683.29,131.49l-.02.03c.42.4.29.22.02-.03Z"/>
          <polygon class="cls-1" points="662.45 128.4 662.49 128.39 661.93 127.78 662.45 128.4"/>
          <path class="cls-1" d="M668.38,123.27c-.39.09-.31.21-.12.35.12-.06.18-.16.12-.35Z"/>
          <path class="cls-1" d="M684.96,128.04c.19-.15-.13-.31-.51-.46-.11.22-.18.37-.18.37.19,0,.5.1.7.09Z"/>
          <path class="cls-1" d="M678.49,123.51l-.31-.36c0,.17.14.28.31.36Z"/>
        </g>
        <g>
          <path class="cls-1" d="M651.27,57.87s-.03-.07,0,0h0Z"/>
          <path class="cls-1" d="M635.18,73.46s-.03,0-.05,0c-.06.2-.13.37-.18.5l.23-.5Z"/>
          <path class="cls-1" d="M627.96,66.73s.02-.04.03-.06c-.11.05-.23.1-.03.06Z"/>
          <path class="cls-1" d="M643.96,69.18s.01-.05-.02-.11c.01.05.02.09.02.11Z"/>
          <path class="cls-1" d="M647.07,50.59s.01,0,.02,0c.02-.04.04-.07.06-.11l-.09.12Z"/>
          <path class="cls-1" d="M647.37,50.4c-.06.16-.23.19-.28.19-.14.26-.1.33.05.31.23-.22.09-.3.23-.5Z"/>
          <path class="cls-1" d="M636.91,47.51l.02-.13s-.02.08-.02.13Z"/>
          <path class="cls-1" d="M635.3,56.1s-.02-.04-.04-.07c0,0,.01.02.04.07Z"/>
          <path class="cls-1" d="M638.54,47.83l.05-.5c-.03.21-.04.37-.05.5Z"/>
          <path class="cls-1" d="M634.95,73.96l-.09.19s.06-.11.09-.19Z"/>
          <path class="cls-1" d="M627.24,62.45c.15-.02.28-.03.38-.04h0s-.39.04-.39.04Z"/>
          <path class="cls-1" d="M636.79,54.36l-.19-.07.33.15s-.07-.05-.14-.08Z"/>
          <path class="cls-1" d="M629.55,59.09c-.06-.01-.11-.02-.17-.03-.17.03-.23.16-.22.33l.62.08-.22-.38Z"/>
          <path class="cls-1" d="M644.19,59.62l-1.25-.14c-.44-.64.84-.55,0-1.28l.25.1c.3.04-2.37-.89,1.13-.54l.12.04s-.25-.11.08-.05l-.77-.12c-.27-.18-.81-.44-.86-.57.14.02.38.1.57.17l-.11-.32c.25.1.55.06.76.27-.55.15-1.99-.69-1.5.33-.89-.79-.8-.09-1.26-.49.11.1.24.27.37.44-.36.24-1.19.39-1.69-.06,0,0-.11-.61-.52-1.23-.4-.64-1.15-1.17-1.72-1.43.27.11-.12-.1-.48-.26l.26.14c-.26-.09-.96-.37-1.17-.39.06.02.12.05.19.07l-.09-.04c.12.04.21.08.28.11.15.06.26.11.21.11l-.07-.03c.09.08-.06.14-.12.16l-.59-.21c1.09.49-1.94.07-2.04.22-.79-.1.08.38-.35.44-.28.23-.91-.13-1.48-.14-.43.07.71.17.72.26l-.9-.03c-.03-.15-.41-.19-.65-.23-.16.16-1.35.19-.17.58-.65.12-1.13,0-1.23.1.23.02.45,0,.7.06-.56-.03.12.09.25.07.47.28-2.43.36-1.11.72l-.24-.06c.98.27,1.96.44,2.48.68l-.46-.02.4.21c-.34,0-.6-.09-.72-.12.42.29-.19.45-.37.67l2.77.29c-.66.05-2.01.17-1.14.37l-.94-.04c-1.82.13.72.41.16.49l-1.04.06.05-.21c-.54.14-.89.18-1.57.28h.03s.09,0,.15,0l.02.04c.5.09.83.25.78.41-.16.23.55.44-.54.75l1.03.16-.63.26-.83-.04c.06-.31-.22-.88-.21-1.25l-.38-.05c-.02.22.32.51.22.64-.17.06-1.04.2-1.59.02l.8.21c.05.83.08.79-.83,1.81l.41-.1c.24.18.5.37-.17.48-.04.35-.17.7-.4,1.07-.21.43-.53.86-.97,1.27l.98-.1c-.03.14-1.33.94.01.66l.56.33c.05.35.57.23.26.89h0s0,0,0,0c-.02.04-.04.08-.07.13l.07-.04c.02,1.01.76-.39.74.76-.43.64,1.23-.33,1.37.23-.26.43-.5.88-.71,1.36.07.71.51.92,1.07,1.06.55.11,1.23.24,2.03.62.53.8.72,2.11-.37,2.84,1.4-.85.74-.59,2.1-.85.07.56-.07.64-.47,1.03.9.83.66-.35,1.29-.22.32-.96.65-2.52.8-2.57l-.15-.32c.52-.48,1.04-.7,1.41-.25v.5s.44-.29.44-.29l.1.63.63-.28-.12-.16c.17-.1.49-.4.78-.13l.07.35c.45.46.75.29.97-.03.2-.32.31-.78.59-.95l.18.71c.47.59-.35-1.06.02-.82l.35.82c-.24-1.17.39.12.71.45l-.54-1.03.35.11c.44.22.81,1.24,1.03,1.82l-.2-.93.5.9c-.39-1.15.24.1.21-.61.2.33.24.57.41.66-.07-.5-.17-1-.29-1.5.03.23.06.46.08.7l-.69-1.33c-.33-1.13.39-.04.34-.5l.12.45c.08-.47.42.07.75.26-.2-.21-.48-.52-.48-.75.03-.12.32.42.48.52-.51-.86-.62-1.41-.2-1.12.08.12.15.24.19.32-.05-.16-.17-.39.03-.24l.58.95-.46-.97c.26.19-.07-.57.35.06l.08.22.85-.29.55.7c-.69-1.02.67.05-.31-1.12.66.54.11-.86,1.16.51.56-.29-.36-1.73.73-1.63,1.24.85,1.43-.09,1.88-.39.09-.57.12-1.12.14-1.65.02-.53.05-.99.12-1.65,2.18.3.15-1.9,1.47-2.36l-.71-.45c.71-.08.72-.58.72-1.02,0-.48-.01-.91.63-1.4-.35-.28-.47-.4-.5-.46-.04.05-.19.12-.71.13.36-.28-.12-.83.91-.86l.11.07c1.03-.04-.54-.87.27-1.33l-1.06.36.08-.58.24.11c-1.44-.95-1.45-1.57-1.51-2.4-.04-.74-.18-1.59-1.55-1.56,1.09-.56-.69.14.34-.68,1.03-1.36-.76-.36-1.26-.24-.05.04-.11.09-.19.15l-.23-.46c1.38-.98-1.22.74-.03-.08-.1-1.84-2.1-1.78-3.29-2.98l-.12.42c-.33-.25-.96.05-1-.69-.07-.75-.97.81-1.07.86-.48.63-.36-.86-.26-.75-.4.11-.99,1.53-1.27.82.03-1.44-1.28,1.23-1.13-.34v.13c-.53-1.15-1.05.74-1.65-.23,0,0,0-.12.02-.22-.15.82-.26,1.63-.34,2.45-.04.41-.06.82-.08,1.23.15.36-.49.92-.36,1.39.68.6,1.06,1.49,1.01,2.41-.1.47.05.89.11,1.33l.21,1.31.16,1.06.08.7.02.26c0,.28,0-.02.04-.17.03-.15.06-.27.09-.31.01-.03.01-.02,0,0l-.04.06-1.75,2.72h0s0,0,0,0h0s0,0,0,0h0s0,0,0,0l1.35-2.06h0s-.04.05-.04.05l-.21.3c-.23.31-.08.1.09-.09.19-.22.49-.54.8-.81l.27-.24c.77-.68,1.8-1.17,2.1-1.2h0c.11-.02.1-.02.06-.01-.16.07-1.43-.04-2.66-.73-.33-.16-.58-.36-.92-.54-.16-.1-.31-.2-.46-.3l-.21-.16s0-.01-.02-.03c-.09,0-.19-.08-.49-.26-.5-.47-.24-.13-.75-.66.78,1,.62,1.1.46,1.06l-.06-.1.07.19c-.05-.07-.11-.17-.15-.24.44.79-.13.1-.28-.26l-.05-.1c.71,1.31,1.86,4.54,1.67,6.33,0,.19-.11.52-.11.61-.01.12-.05.25-.13.38-.06.07.08-.14.35-.33.1-.05.31-.2.51-.31.21-.1.4-.15.71-.29.28-.11.57-.19.86-.24.35-.11.71-.19,1.07-.25.62-.06,1.5-.24,2.3-.26.39,0,.87-.06,1.33-.06h.35c.15,0,.02,0,.05,0h-.07c-.09-.03-.19-.11-.19-.16.02-.09.15-.18.5-.23.52.02.6-.18.54-.49-.07-.3-.29-.71-.51-.82Z"/>
          <path class="cls-1" d="M643.48,57.21h0c.41.15.26.09,0,0Z"/>
          <polygon class="cls-1" points="631.03 57.82 631.05 57.81 630.44 57.75 631.03 57.82"/>
          <path class="cls-1" d="M631.43,54.76c-.17.09-.07.13.1.16.04-.04.02-.09-.1-.16Z"/>
          <path class="cls-1" d="M642.16,57.73c-.08.14-.24-.06-.42-.29.14-.08.22-.15.22-.15.04.12.18.31.2.44Z"/>
          <path class="cls-1" d="M637.32,54.46l-.31-.18c.07.06.18.12.31.18Z"/>
        </g>
      </g>
    </g>
  </g>
</svg>